<svg width="44" height="28" viewBox="0 0 44 28" fill="none" xmlns="http://www.w3.org/2000/svg">
<rect x="0.516846" y="0.750732" width="42.7543" height="26.5091" rx="1.215" fill="#2E77BC"/>
<path fill-rule="evenodd" clip-rule="evenodd" d="M12.5227 11.5617L12.1017 10.5336L11.683 11.5617H12.5227ZM21.7977 11.1523C21.7131 11.2037 21.6131 11.2054 21.4934 11.2054H20.7461V10.6325H21.5035C21.6107 10.6325 21.7226 10.6374 21.7952 10.679C21.875 10.7167 21.9244 10.7966 21.9244 10.9071C21.9244 11.0198 21.8774 11.1106 21.7977 11.1523ZM27.1284 11.5617L26.7027 10.5336L26.2795 11.5617H27.1284ZM17.1915 12.6746H16.5609L16.5586 10.6546L15.6665 12.6746H15.1265L14.2323 10.6528V12.6746H12.9812L12.7448 12.0993H11.4641L11.2253 12.6746H10.5571L11.6587 10.0954H12.5726L13.6188 12.5374V10.0954H14.6227L15.4277 11.8451L16.1673 10.0954H17.1914V12.6746H17.1915ZM19.7048 12.6746H17.6498V10.0954H19.7048V10.6325H18.265V11.0974H19.6702V11.6261H18.265V12.1412H19.7048V12.6746ZM22.602 10.79C22.602 11.2014 22.3282 11.4137 22.1685 11.4775C22.3031 11.5289 22.4182 11.6196 22.4729 11.6947C22.5597 11.823 22.5746 11.9376 22.5746 12.168V12.6746H21.9542L21.9519 12.3494C21.9519 12.1942 21.9667 11.971 21.8548 11.8469C21.765 11.7562 21.6279 11.7365 21.4065 11.7365H20.7462V12.6746H20.1311V10.0954H21.5459C21.8602 10.0954 22.0919 10.1038 22.2907 10.219C22.4853 10.3342 22.602 10.5024 22.602 10.79ZM22.9588 10.0954H23.5864V12.6746H22.9588V10.0954ZM30.8678 12.6746H29.9962L28.8302 10.7388V12.6746H27.5775L27.3382 12.0993H26.0604L25.8281 12.6746H25.1083C24.8093 12.6746 24.4308 12.6084 24.2164 12.3894C24.0002 12.1704 23.8877 11.8738 23.8877 11.4047C23.8877 11.0222 23.955 10.6725 24.2193 10.3962C24.4181 10.1903 24.7295 10.0954 25.1534 10.0954H25.749V10.6481H25.1659C24.9415 10.6481 24.8148 10.6815 24.6927 10.8009C24.5877 10.9095 24.5158 11.1148 24.5158 11.3851C24.5158 11.6614 24.5706 11.8607 24.685 11.9908C24.7797 12.0929 24.9517 12.1239 25.1136 12.1239H25.3899L26.2569 10.0955H27.1786L28.22 12.5351V10.0955H29.1565L30.2378 11.8919V10.0955H30.8678V12.6746ZM10.55 13.1813H11.601L11.838 12.6084H12.3685L12.6049 13.1813H14.6728V12.7433L14.8574 13.1831H15.9309L16.1155 12.7367V13.1813H21.2546L21.2521 12.2409H21.3516C21.4212 12.2433 21.4416 12.2497 21.4416 12.365V13.1813H24.0996V12.9623C24.314 13.0775 24.6474 13.1813 25.0862 13.1813H26.2043L26.4436 12.6084H26.9742L27.2083 13.1813H29.363V12.6371L29.6894 13.1813H31.4162V9.58398H29.7072V10.0088L29.4679 9.58398H27.7144V10.0088L27.4946 9.58398H25.1261C24.7295 9.58398 24.3811 9.63945 24.0996 9.79403V9.58398H22.465V9.79403C22.2859 9.63471 22.0417 9.58398 21.7703 9.58398H15.7987L15.398 10.5131L14.9866 9.58398H13.1056V10.0088L12.899 9.58398H11.2949L10.5499 11.2943V13.1813H10.55Z" fill="white"/>
<path fill-rule="evenodd" clip-rule="evenodd" d="M32.2577 15.0177H31.1365C31.0247 15.0177 30.9503 15.0219 30.8876 15.0643C30.8227 15.1061 30.7977 15.168 30.7977 15.2499C30.7977 15.3473 30.8525 15.4134 30.9322 15.4421C30.9971 15.4648 31.0669 15.4713 31.1693 15.4713L31.5027 15.4802C31.8391 15.4886 32.0637 15.5465 32.2006 15.688C32.2256 15.7076 32.2405 15.7297 32.2577 15.7517V15.0177ZM32.2577 16.7186C32.1083 16.9376 31.8171 17.0485 31.423 17.0485H30.235V16.4954H31.4181C31.5354 16.4954 31.6176 16.4799 31.667 16.4314C31.7098 16.3916 31.7398 16.3336 31.7398 16.2632C31.7398 16.188 31.7098 16.1284 31.6646 16.0926C31.62 16.0532 31.5551 16.0353 31.4479 16.0353C30.8704 16.0157 30.1498 16.0532 30.1498 15.2368C30.1498 14.8626 30.3868 14.4687 31.0324 14.4687H32.2576V13.9554H31.1192C30.7757 13.9554 30.5261 14.038 30.3494 14.1661V13.9554H28.6655C28.3963 13.9554 28.0801 14.0223 27.9307 14.1661V13.9554H24.9238V14.1661C24.6845 13.9932 24.2807 13.9554 24.0944 13.9554H22.111V14.1661C21.9217 13.9824 21.5007 13.9554 21.244 13.9554H19.0243L18.5163 14.5064L18.0407 13.9554H14.7249V17.5552H17.9783L18.5016 16.9956L18.9947 17.5552L21 17.557V16.7103H21.1973C21.4633 16.7143 21.7771 16.7036 22.054 16.5837V17.5552H23.7081V16.6169H23.7879C23.8897 16.6169 23.8998 16.6212 23.8998 16.7232V17.555H28.9246C29.2437 17.555 29.5771 17.4732 29.7617 17.3247V17.555H31.3557C31.6873 17.555 32.0112 17.5084 32.2577 17.3891V16.7186ZM29.8039 15.688C29.9237 15.8121 29.988 15.9689 29.988 16.2345C29.988 16.7895 29.642 17.0485 29.0216 17.0485H27.8236V16.4954H29.0169C29.1335 16.4954 29.2162 16.4799 29.268 16.4314C29.3104 16.3916 29.3408 16.3336 29.3408 16.2632C29.3408 16.188 29.3079 16.1284 29.2657 16.0926C29.2186 16.0532 29.1537 16.0353 29.0467 16.0353C28.4713 16.0157 27.7509 16.0532 27.7509 15.2368C27.7509 14.8626 27.9856 14.4687 28.6304 14.4687H29.8636V15.0179H28.7353C28.6233 15.0179 28.5507 15.022 28.4887 15.0644C28.4214 15.1062 28.3964 15.1682 28.3964 15.25C28.3964 15.3474 28.4537 15.4136 28.531 15.4423C28.5959 15.4649 28.6656 15.4714 28.7704 15.4714L29.1016 15.4804C29.4354 15.4886 29.6646 15.5465 29.8039 15.688ZM24.2535 15.5285C24.1712 15.5775 24.0695 15.5818 23.9497 15.5818H23.2025V15.0023H23.9599C24.0695 15.0023 24.1791 15.0047 24.2535 15.0489C24.3332 15.0906 24.3808 15.1706 24.3808 15.2809C24.3808 15.3914 24.3332 15.4802 24.2535 15.5285ZM24.625 15.8496C24.7618 15.9003 24.8739 15.991 24.9262 16.0662C25.0132 16.1921 25.0258 16.3097 25.0282 16.5372V17.0485H24.4107V16.7257C24.4107 16.5706 24.4255 16.3407 24.3113 16.2208C24.2214 16.1284 24.0844 16.1063 23.8599 16.1063H23.2026V17.0485H22.5845V14.4687H24.0047C24.316 14.4687 24.5428 14.4824 24.7448 14.5905C24.9389 14.708 25.061 14.869 25.061 15.1633C25.0609 15.5751 24.7869 15.7852 24.625 15.8496ZM25.4021 14.4687H27.4551V15.0023H26.0146V15.4713H27.4198V15.9976H26.0146V16.5109L27.4551 16.5132V17.0485H25.4021V14.4687ZM21.2519 15.6592H20.4569V15.0023H21.2591C21.4811 15.0023 21.6352 15.093 21.6352 15.3186C21.6352 15.5418 21.4883 15.6592 21.2519 15.6592ZM19.8443 16.8139L18.8999 15.763L19.8443 14.7456V16.8139ZM17.4054 16.5109H15.893V15.9976H17.2434V15.4713H15.893V15.0023H17.4352L18.108 15.7541L17.4054 16.5109ZM22.2957 15.3186C22.2957 16.0353 21.7622 16.1832 21.2244 16.1832H20.4569V17.0485H19.2613L18.5039 16.1946L17.7168 17.0485H15.2802V14.4687H17.7542L18.511 15.3143L19.2935 14.4687H21.2591C21.7472 14.4687 22.2957 14.6041 22.2957 15.3186Z" fill="white"/>
</svg>
