<svg width="26" height="27" viewBox="0 0 26 27" fill="none" xmlns="http://www.w3.org/2000/svg">
<path fill-rule="evenodd" clip-rule="evenodd" d="M25.415 22.3936L23.4624 7.28846C23.4229 6.91036 23.0713 6.60875 22.6817 6.60875H17.6032V4.53139C17.6032 2.03912 15.4938 0 12.9158 0C10.3377 0 8.22835 2.03912 8.22835 4.53139V6.60875H3.14982C2.75871 6.60875 2.40715 6.91037 2.36909 7.28846L0.416504 22.3936V22.4686C0.416504 24.9609 2.52584 27 5.10391 27H20.7291C23.3072 27 25.4165 24.9609 25.4165 22.4686C25.415 22.4318 25.415 22.3936 25.415 22.3936H25.415ZM9.79132 4.53265C9.79132 2.87163 11.1975 1.51221 12.9158 1.51221C14.634 1.51221 16.0402 2.87163 16.0402 4.53265V6.60861H9.79132V4.53265ZM5.10391 25.4901H20.7276L20.7277 25.4901C22.4474 25.4901 23.8141 24.1674 23.8536 22.5064L21.9786 8.11908H17.6032L17.6047 11.1764C18.0354 11.4412 18.3474 11.9326 18.3474 12.4607C18.3474 13.292 17.6443 13.9717 16.7844 13.9717C15.9245 13.9717 15.2214 13.292 15.2214 12.4607C15.2214 11.8943 15.5334 11.4044 16.0417 11.1396V8.11912H9.79135V11.1764C10.222 11.4412 10.534 11.9326 10.534 12.4608C10.534 13.292 9.83092 13.9717 8.97106 13.9717C8.1112 13.9717 7.40809 13.292 7.40809 12.4608C7.40809 11.8943 7.72008 11.4044 8.22838 11.1396V8.11916H3.85297L1.97947 22.5065C2.01753 24.169 3.38569 25.4901 5.10391 25.4901ZM9.36082 12.4622C9.36082 12.6888 9.20409 12.8403 8.96971 12.8403C8.73533 12.8403 8.57859 12.6888 8.57859 12.4622C8.57859 12.2356 8.73533 12.0841 8.96971 12.0841C9.20554 12.0841 9.36082 12.2356 9.36082 12.4622ZM16.7831 12.8403C17.0174 12.8403 17.1742 12.6888 17.1742 12.4622C17.1742 12.2356 17.0174 12.0841 16.7831 12.0841C16.5487 12.0841 16.3919 12.2356 16.3919 12.4622C16.3919 12.6888 16.5487 12.8403 16.7831 12.8403Z" fill="black"/>
</svg>
