<svg width="25" height="28" viewBox="0 0 25 28" fill="none" xmlns="http://www.w3.org/2000/svg">
<path fill-rule="evenodd" clip-rule="evenodd" d="M24.9985 22.8977L23.0459 7.79261C23.0064 7.41451 22.6548 7.1129 22.2652 7.1129H17.1867V5.03554C17.1867 2.54327 15.0773 0.50415 12.4993 0.50415C9.92118 0.50415 7.81184 2.54327 7.81184 5.03554V7.1129H2.73332C2.3422 7.1129 1.99065 7.41452 1.95259 7.79261L0 22.8977V22.9728C0 25.465 2.10933 27.5042 4.68741 27.5042H20.3126C22.8907 27.5042 25 25.465 25 22.9728C24.9985 22.9359 24.9985 22.8977 24.9985 22.8977H24.9985ZM9.37481 5.0368C9.37481 3.37578 10.781 2.01636 12.4992 2.01636C14.2175 2.01636 15.6237 3.37578 15.6237 5.0368V7.11276H9.37481V5.0368ZM4.68741 25.9943H20.3111L20.3112 25.9942C22.0309 25.9942 23.3976 24.6716 23.4371 23.0106L21.5621 8.62323H17.1867L17.1882 11.6805C17.6189 11.9453 17.9309 12.4367 17.9309 12.9649C17.9309 13.7961 17.2278 14.4758 16.3679 14.4758C15.508 14.4758 14.8049 13.7961 14.8049 12.9649C14.8049 12.3985 15.1169 11.9085 15.6252 11.6437V8.62327H9.37485V11.6805C9.80552 11.9454 10.1175 12.4367 10.1175 12.9649C10.1175 13.7962 9.41441 14.4759 8.55455 14.4759C7.6947 14.4759 6.99159 13.7962 6.99159 12.9649C6.99159 12.3985 7.30358 11.9086 7.81188 11.6437V8.62331H3.43647L1.56297 23.0106C1.60103 24.6731 2.96919 25.9943 4.68741 25.9943ZM8.94432 12.9664C8.94432 13.1929 8.78759 13.3445 8.5532 13.3445C8.31882 13.3445 8.16209 13.1929 8.16209 12.9664C8.16209 12.7398 8.31882 12.5883 8.5532 12.5883C8.78904 12.5883 8.94432 12.7398 8.94432 12.9664ZM16.3665 13.3445C16.6009 13.3445 16.7577 13.1929 16.7577 12.9664C16.7577 12.7398 16.6009 12.5883 16.3665 12.5883C16.1322 12.5883 15.9754 12.7398 15.9754 12.9664C15.9754 13.1929 16.1322 13.3445 16.3665 13.3445Z" fill="white"/>
</svg>
