<svg width="50" height="54" viewBox="0 0 50 54" fill="none" xmlns="http://www.w3.org/2000/svg">
<path d="M11.356 21.6094C12.0431 21.8058 12.632 21.8058 13.221 21.5113C13.6136 21.4131 13.7118 21.0205 13.6136 20.6279C13.6136 20.5298 13.5154 20.4316 13.5154 20.2353C13.5154 20.1371 13.4173 20.039 13.4173 19.9408C13.3191 19.45 13.221 18.6648 13.221 17.8795C13.221 16.5053 13.4173 15.3275 13.7118 15.1311C13.8099 15.033 13.8099 14.9348 13.8099 14.8367V14.0514V13.7569C13.6136 13.0698 13.5154 12.3827 13.5154 11.5975C13.5154 6.1007 18.6196 1.58516 24.9017 1.58516C30.0058 1.58516 34.3247 4.52987 35.7972 8.55447C36.0917 9.14341 36.3862 9.83048 36.4844 10.6157C36.6807 11.7936 36.5825 12.9715 36.6807 14.1494V14.7383C36.6807 14.8365 36.6807 15.0328 36.7789 15.131C36.877 15.2291 36.877 15.4254 36.877 15.5236C36.877 15.9162 36.9752 16.3088 36.9752 16.7996C36.9752 18.0756 36.7789 19.2535 36.3862 20.3332C36.3862 20.4314 36.3862 20.4314 36.2881 20.5296C36.1899 20.9222 36.3862 21.2167 36.6807 21.4129C36.877 21.5111 36.877 21.6093 36.877 21.7074C36.6807 23.4742 36.0918 25.0448 35.1102 26.5171C34.1286 27.9894 32.7544 29.0692 31.0858 29.9526C30.6931 30.1489 30.3005 30.3452 29.9079 30.4434H29.6134C29.1226 30.2471 28.73 30.2471 28.2392 30.4434C27.454 30.7379 26.6687 30.9342 25.7853 31.2286C25.0001 31.425 24.5093 31.9158 24.5093 32.6028C24.5093 33.1918 24.9019 33.6826 25.6872 33.977H25.7854H26.2761H26.4725C27.3558 33.6826 28.3375 33.3881 29.2209 33.0937C29.7116 32.8974 30.2024 32.701 30.3006 32.3084C30.3988 31.8176 30.8896 31.6213 31.2822 31.425C32.5582 30.8361 33.7361 30.0508 34.7177 29.1674C35.7975 28.0876 36.6809 26.9097 37.2698 25.6337C37.8587 24.3577 38.2514 23.0816 38.3496 21.7074C38.3496 21.6093 38.4477 21.5111 38.5459 21.413C39.5274 21.0203 40.0183 20.3332 40.0183 19.3517V14.2475C40.0183 13.3642 39.6256 12.677 38.7422 12.2844C38.4478 12.0881 38.1533 11.7936 38.1533 11.401C38.0551 10.9102 38.0551 10.4194 37.957 9.92863C37.6625 8.45625 36.9754 7.08211 36.092 5.70785C35.3067 4.52996 34.3251 3.4502 33.1473 2.56682C31.9694 1.68344 30.6934 0.99631 29.221 0.505556C28.3376 0.309242 27.1597 0.112928 25.9818 0.0147705H25.7855H25.5892H24.3132H23.9206C23.4298 0.112928 23.0372 0.112928 22.5464 0.211085C20.5832 0.505556 18.8164 1.29084 17.1477 2.37054C15.8717 3.25392 14.7919 4.23556 13.9085 5.41344C13.1233 6.4932 12.4362 7.76921 12.0435 9.04522C11.7491 10.0268 11.5527 11.0084 11.4546 11.9899C11.4546 12.1862 11.3564 12.2844 11.1601 12.3826C10.1785 12.677 9.5896 13.3641 9.5896 14.2476V19.7444C9.78591 20.5296 10.473 21.3149 11.3564 21.6094L11.356 21.6094Z" fill="black"/>
<path fill-rule="evenodd" clip-rule="evenodd" d="M15.0861 17.2901C15.0861 16.9956 15.2824 16.5048 15.5769 16.4067V16.407C16.264 16.1126 16.1658 15.6218 16.0677 15.131C16.0677 14.6438 16.0462 14.1459 16.0245 13.6443C15.9808 12.63 15.9363 11.6009 16.0677 10.6158C16.4603 7.57286 18.5216 5.70791 21.27 4.72634C23.8223 3.84292 26.4725 3.84292 29.0245 4.82449C32.5582 6.10038 34.3251 8.94678 34.0306 12.8731C33.9815 13.2165 33.957 13.56 33.9324 13.9035C33.9079 14.2471 33.8834 14.5907 33.8343 14.9343C33.8245 15.0025 33.8138 15.0697 33.8033 15.1357C33.7078 15.7354 33.6274 16.2396 34.4232 16.5048C34.6195 16.603 34.8158 16.9956 34.8158 17.2901C35.0121 18.468 34.8158 19.5477 34.1287 20.6274C33.8832 21.0202 33.6378 21.4374 33.3923 21.8547C33.147 22.2718 32.9016 22.6888 32.6563 23.0813C32.3946 23.474 32.1437 23.8775 31.8929 24.281C31.3912 25.0881 30.8895 25.8951 30.3006 26.615C27.3555 30.0505 22.8405 30.1487 19.7976 26.7131C18.8103 25.6435 18.0988 24.436 17.3742 23.2061C17.2343 22.9687 17.094 22.7305 16.9511 22.4924C16.7547 22.247 16.6075 21.977 16.4603 21.7071C16.313 21.4372 16.1658 21.1672 15.9695 20.9218C15.1843 19.8421 14.8898 18.5661 15.0861 17.2901ZM17.1965 17.0447C17.0248 16.9711 16.853 16.8975 16.6567 16.7993L16.6564 16.7994C16.6004 16.9116 16.5282 17.0238 16.4561 17.1359C16.2758 17.4164 16.0955 17.6968 16.1657 17.9773C16.2638 18.6643 16.5582 19.3512 16.8527 20.0383L16.8528 20.0386C17.0953 20.5843 17.4128 21.0925 17.7357 21.6095C17.9356 21.9295 18.1375 22.2529 18.3252 22.5906L18.328 22.5962C18.8178 23.5759 19.3077 24.5555 19.7976 25.4372C21.3681 27.6947 23.822 28.48 26.4722 27.8911C28.6317 27.4002 29.8096 25.9279 30.7912 24.1611C31.0934 23.6322 31.4101 23.1033 31.7302 22.5689C32.2418 21.7146 32.762 20.846 33.245 19.9403C33.2769 19.8607 33.3113 19.7785 33.3467 19.6941C33.5292 19.2584 33.7358 18.7651 33.7358 18.2717C33.7358 17.9898 33.5841 17.6574 33.4259 17.3108C33.3637 17.1745 33.3004 17.036 33.245 16.8975C33.0487 16.9956 32.8524 17.0692 32.6561 17.1429C32.4598 17.2165 32.2635 17.2901 32.0672 17.3883C32.1717 16.8655 32.2484 16.3149 32.3269 15.7513C32.3959 15.2566 32.4662 14.7519 32.5579 14.2472C31.7732 14.1491 31.0865 14.051 30.3998 13.9529L30.3985 13.9528C27.1595 13.6583 24.1166 12.7749 21.6627 10.4191C21.3682 10.1246 20.7793 9.92831 20.3867 10.0265C18.5217 10.5173 17.2456 12.5786 17.4419 14.5417C17.5401 15.5233 17.6383 16.4067 17.7364 17.2901C17.5401 17.1919 17.3683 17.1183 17.1965 17.0447Z" fill="black"/>
<path d="M48.9503 45.4612C47.9687 40.6515 45.5147 36.9213 40.8031 34.9582C38.7418 34.0748 36.5823 33.1914 34.423 32.3079L33.2451 31.719C32.9507 32.8969 32.7544 33.9766 32.4599 35.1545C31.3801 40.3568 29.3189 45.1669 25.9818 49.3871C25.0984 50.4669 24.9021 50.4669 24.0187 49.3871C21.1722 45.7554 19.209 41.7306 18.1293 37.4123C17.6385 35.5473 17.2459 33.6823 16.7551 31.8174C14.1048 32.9953 11.3564 34.075 8.7065 35.2529C7.92125 35.6455 7.13599 36.0382 6.44886 36.5289C2.81708 39.3754 1.05019 43.1056 0.853939 47.6205C0.755782 49.4855 1.24657 50.0744 3.01339 50.6634C3.20971 50.7616 3.40602 50.7616 3.60234 50.8597C8.31388 51.7431 13.1234 52.4302 17.933 52.8229C23.2334 53.3136 28.6319 53.2155 33.9327 52.6265C37.6627 52.2339 41.3926 51.645 45.1223 51.056C46.0057 50.9579 46.9873 50.5652 47.7726 50.2708C48.3615 50.0745 48.8523 49.5836 48.8523 48.7984C49.0486 47.7186 49.1468 46.5407 48.9505 45.461L48.9503 45.4612Z" fill="black"/>
<path d="M27.0611 46.6391C27.0611 46.5409 27.1593 46.5409 27.0611 46.4428C26.963 46.0501 26.963 45.7556 26.8648 45.363C26.8648 45.0685 26.7667 44.7741 26.6685 44.4796C25.5888 45.4612 24.6072 46.4428 23.6256 47.4243C24.0182 47.9151 24.509 48.3077 24.9016 48.7985L27.0611 46.6391H27.0611Z" fill="black"/>
<path d="M26.7664 35.7441C26.6683 35.7441 26.6683 35.7441 26.7664 35.7441C25.5886 35.1551 24.4107 35.1551 23.3309 35.7441C22.8401 36.0385 22.742 36.2349 23.1346 36.6275C23.5272 37.0201 23.9199 37.3146 24.3125 37.7072C24.4106 37.8054 24.5088 37.9035 24.4106 38.0017C24.3125 38.3943 24.3125 38.7869 24.2143 39.1796L25.6867 38.0017C25.6867 38.0017 25.6867 37.9035 25.7849 37.9035C25.883 37.8054 25.883 37.7072 25.9812 37.6091C26.3738 37.2164 26.7664 36.9219 27.0609 36.5293C27.2573 36.2348 27.2573 36.0385 26.7665 35.744L26.7664 35.7441Z" fill="black"/>
<path d="M23.0368 46.8357C24.3128 45.8541 25.4907 44.9707 26.5704 43.9892L26.6686 43.891C26.5704 43.4984 26.5704 43.1057 26.4723 42.615C26.3741 42.7131 26.2759 42.7131 26.2759 42.8113C25.3926 43.6947 24.5091 44.5781 23.5275 45.3634C23.2331 45.6579 22.9386 45.9523 22.9386 46.4431C22.9386 46.5413 22.9386 46.6395 23.0368 46.8358V46.8357Z" fill="black"/>
<path d="M23.5275 43.1053C23.4293 43.498 23.4293 43.8906 23.3312 44.2832H23.4293C24.4109 43.498 25.2943 42.8108 26.2759 42.0256C26.2759 42.0256 26.374 41.9274 26.374 41.8293C26.2759 41.4366 26.2759 41.044 26.1777 40.6514C26.0795 40.6514 26.0795 40.7495 26.0795 40.7495C25.2943 41.5348 24.4109 42.32 23.6256 43.1053H23.5275V43.1053Z" fill="black"/>
<path d="M25.9812 39.8664C25.883 39.4737 25.883 39.0811 25.7849 38.6885H25.6867C25.6867 38.7866 25.5886 38.7866 25.5886 38.8848L24.3126 40.1608C24.0181 40.3571 23.9199 40.6516 23.9199 40.9461C23.9199 41.2405 23.8218 41.4368 23.8218 41.7313H23.9199C24.6071 41.1424 25.2941 40.6516 25.9812 40.0627V39.8664Z" fill="black"/>
</svg>
