<svg width="67" height="59" viewBox="0 0 67 59" fill="none" xmlns="http://www.w3.org/2000/svg">
<path fill-rule="evenodd" clip-rule="evenodd" d="M22.3597 45.5195L20.8446 35.0843L20.8418 34.8376L21.9856 33.5528L22.0371 33.2465C22.1672 32.4659 21.5655 31.7585 20.7741 31.7585H18.5352C17.7438 31.7585 17.1447 32.4686 17.2748 33.2493L17.3263 33.5528L18.6084 34.8755L16.9333 45.4141L13.8922 31.3333L13.7458 30.7857L13.3474 31.0215C11.8567 31.9078 10.2304 32.5367 8.53092 32.8863C5.20516 33.5667 2.12067 34.3744 1.02594 38.0823C0.443426 40.0557 0.275043 46.667 0.15356 51.4368L0.153559 51.4369C0.119032 52.7925 0.0882934 53.9994 0.0529122 54.9088C0.0149661 55.8033 0.638371 56.5866 1.51658 56.7519C4.06713 57.2344 8.91609 58.137 15.2068 58.4487L15.2142 58.4489L15.2143 58.4489C15.2852 58.4516 15.3584 58.4543 15.429 58.4595C15.7605 58.4752 16.0946 58.4883 16.4263 58.5014L16.4644 58.5029C16.5271 58.5055 16.5897 58.5075 16.652 58.5095L16.6522 58.5095L16.6523 58.5095C16.7166 58.5116 16.7806 58.5137 16.8439 58.5164L16.8446 58.5164L16.8454 58.5165C17.0974 58.5237 17.3495 58.5309 17.6015 58.5362C17.6336 58.5373 17.6656 58.5381 17.6977 58.5381H17.6978C17.7384 58.5381 17.7791 58.5381 17.8197 58.5408C17.8714 58.5408 17.9231 58.5433 17.9772 58.5459L17.985 58.5462C18.0071 58.5462 18.0284 58.5469 18.0494 58.5476H18.0494C18.0697 58.5483 18.0897 58.5489 18.1097 58.5489H18.2913H18.2914H18.2915C18.6682 58.5544 19.0449 58.5598 19.4216 58.5598C19.6882 58.5598 19.9572 58.5598 20.2263 58.5554C27.7331 58.4751 34.6397 57.2984 37.7934 56.7384C38.6797 56.5811 39.3166 55.7951 39.2787 54.8953C39.2422 53.9731 39.2107 52.7472 39.1753 51.3714C39.0527 46.6084 38.884 40.0498 38.3057 38.0875C37.2052 34.3606 34.0773 33.5637 30.7438 32.8807C29.0064 32.5229 27.3422 31.8724 25.8243 30.9563L25.4584 30.7313L22.3597 45.5195ZM20.2263 58.5554C19.9588 58.5583 19.6905 58.5598 19.4216 58.5598C19.7089 58.5598 19.9989 58.5571 20.2889 58.5544L20.2263 58.5554ZM17.5245 58.5329C17.5368 58.5335 17.549 58.534 17.5613 58.5346C17.5747 58.5351 17.5881 58.5357 17.6015 58.5362L17.6977 58.5381C17.6679 58.5367 17.6381 58.5361 17.6083 58.5354C17.5804 58.5347 17.5524 58.5341 17.5245 58.5329ZM17.5245 58.5329C17.5227 58.5328 17.5208 58.5328 17.519 58.5327L17.5188 58.5327C17.5207 58.5328 17.5226 58.5328 17.5245 58.5329ZM21.7959 58.5214C21.7658 58.5227 21.735 58.5234 21.7038 58.5241C21.6733 58.5248 21.6425 58.5255 21.6116 58.5268C21.6428 58.5254 21.6733 58.5248 21.7038 58.5241C21.7343 58.5234 21.7648 58.5227 21.7959 58.5214Z" fill="black"/>
<path fill-rule="evenodd" clip-rule="evenodd" d="M28.3295 13.3247C28.3343 13.3789 28.339 13.4331 28.3445 13.4873L28.3443 13.4873C29.3933 13.5985 30.2064 14.4848 30.2118 15.5663V18.77C30.2118 19.8841 29.339 20.792 28.2386 20.8517C27.9784 21.0766 27.5691 21.4182 27.0432 21.8003C26.8454 22.3018 26.6285 22.7897 26.3846 23.2613C25.9807 24.0473 25.5119 24.7955 24.9752 25.5083C23.4438 27.5466 21.5302 28.6606 19.576 28.6606H19.4676C17.4889 28.6199 15.597 27.4328 14.1415 25.3186C13.6889 24.66 13.2769 23.9715 12.9137 23.2614C12.5044 22.4699 12.1575 21.6595 11.8756 20.8545H11.2169C10.065 20.8545 9.12988 19.9194 9.12988 18.7674V15.5636C9.12988 14.5499 9.8536 13.7043 10.8131 13.5145C10.8022 12.3545 10.9649 11.2134 11.2224 10.0831C11.2291 10.056 11.2352 10.0289 11.2413 10.0018C11.2474 9.9747 11.2535 9.94759 11.2603 9.92048C11.2523 9.91847 11.2457 9.91497 11.2385 9.91108C11.2359 9.90973 11.2333 9.90833 11.2305 9.90693C11.1622 10.0245 11.093 10.1411 11.0201 10.2639C10.9686 10.3506 10.9153 10.4404 10.8592 10.5358C10.9594 10.2105 11.0896 9.93673 11.2576 9.67923C11.3172 9.58708 11.366 9.48138 11.3985 9.37838C11.4724 9.14218 11.5395 8.90599 11.6141 8.64345C11.6217 8.61676 11.6293 8.58979 11.6371 8.56251C11.32 8.84166 11.1031 9.14795 10.9324 9.49217C11.1085 8.73862 11.5314 8.17758 12.2469 7.85774C12.3195 7.82367 12.3962 7.79931 12.4729 7.77494C12.5365 7.75471 12.6002 7.73448 12.6616 7.70867C12.7294 7.68156 12.8053 7.64091 12.8432 7.58399C12.8871 7.51029 12.9238 7.43114 12.9605 7.3518C12.9873 7.294 13.0141 7.2361 13.0438 7.18013C13.079 7.11187 13.1204 7.04678 13.1622 6.98123C13.1752 6.96087 13.1882 6.94048 13.201 6.91993C13.2037 6.9145 13.2064 6.91179 13.2091 6.90908C13.4657 6.70955 13.7118 6.49678 13.9579 6.28411C14.5074 5.80922 15.0563 5.33478 15.719 5.00904C16.2015 4.77052 16.7056 4.58892 17.2261 4.4561C17.1346 4.49419 17.0422 4.53094 16.9496 4.56776C16.7787 4.63576 16.6071 4.704 16.44 4.78136C16.1744 4.90603 15.9115 5.04156 15.6621 5.19877C15.4821 5.31078 15.311 5.43903 15.1399 5.56717C15.0792 5.61267 15.0185 5.65816 14.9574 5.70291L14.99 5.7517C15.0299 5.7261 15.0714 5.70243 15.1128 5.67881C15.181 5.63988 15.2491 5.60106 15.3098 5.55383C15.8194 5.13913 16.4102 4.90061 17.0337 4.72985C17.7871 4.52385 18.5569 4.43441 19.3321 4.39375C19.4539 4.38743 19.5756 4.38756 19.6979 4.38769C19.7852 4.38778 19.8729 4.38788 19.961 4.38562C18.8415 4.51031 17.7411 4.72443 16.7138 5.21231C16.8615 5.2 17.0091 5.18901 17.1566 5.17802C17.5291 5.15029 17.9007 5.12261 18.2696 5.07407C18.4791 5.0473 18.6849 4.99765 18.8908 4.94798C19.0392 4.91217 19.1877 4.87636 19.3376 4.8491C19.98 4.73526 20.6278 4.6919 21.3162 4.67563C21.0811 4.71932 20.8501 4.76237 20.6219 4.80488C20.1846 4.88636 19.7578 4.96589 19.3322 5.04426V5.0822C19.3764 5.08582 19.421 5.08883 19.4656 5.09184C19.5547 5.09786 19.6439 5.10389 19.7306 5.11473C20.0288 5.15538 20.3242 5.14183 20.6251 5.11473C21.5005 5.03612 22.3652 5.12828 23.2298 5.25296C23.2488 5.25838 23.2678 5.26922 23.2813 5.30717H21.2945V5.34512C21.3614 5.36183 21.4282 5.37829 21.495 5.39472C21.6448 5.4316 21.7942 5.46838 21.9423 5.50775C21.9866 5.51981 22.0315 5.53092 22.0766 5.54206C22.1835 5.56848 22.2912 5.59511 22.3923 5.63514C22.7018 5.76018 23.0268 5.7891 23.3521 5.81805C23.4569 5.82738 23.5618 5.83671 23.6662 5.84926C24.8127 5.98477 25.8942 6.31006 26.8618 6.96599C26.8971 6.99038 26.9323 7.01478 26.9648 7.0473C26.0189 6.59736 25.0349 6.26939 23.9806 6.18537C24.008 6.19711 24.0357 6.20921 24.0637 6.2214C24.1132 6.24298 24.1635 6.26487 24.2137 6.28565C24.3351 6.33785 24.4574 6.38962 24.5798 6.44147C24.769 6.52156 24.9586 6.60183 25.1461 6.68409C25.8482 6.99578 26.355 7.52435 26.7778 8.15046C26.8429 8.24804 26.9215 8.33748 27.0055 8.41609C27.4121 8.79557 27.6804 9.25903 27.8891 9.76589C27.9379 9.88514 27.9813 10.0044 28.0165 10.1264C27.8735 9.90269 27.7316 9.67795 27.5894 9.45282C27.5025 9.31514 27.4155 9.17731 27.328 9.03949C27.3145 9.04491 27.3009 9.05304 27.2874 9.06117C27.2942 9.07743 27.3003 9.09437 27.3064 9.11131C27.3125 9.12825 27.3186 9.1452 27.3253 9.16146C27.4825 9.59513 27.6397 10.0261 27.7969 10.4571C27.843 10.5817 27.8945 10.7064 27.9514 10.8257C28.2279 11.403 28.3824 12.021 28.5125 12.6471C28.5206 12.6796 28.5261 12.7122 28.5206 12.7501C28.4979 12.6819 28.4758 12.6134 28.4537 12.5448C28.4126 12.417 28.3713 12.2889 28.3255 12.1619C28.2726 12.0135 28.2152 11.8666 28.1543 11.711C28.134 11.6591 28.1134 11.6063 28.0924 11.5521C28.116 11.7191 28.1406 11.8833 28.1649 12.0458C28.2216 12.424 28.2767 12.7924 28.3146 13.1621C28.3201 13.2163 28.3248 13.2705 28.3295 13.3247ZM19.4975 27.1538C20.9937 27.1809 22.5088 26.2756 23.7692 24.6005L23.769 24.6006C24.097 24.1642 24.3979 23.7088 24.677 23.2317C23.7663 23.6817 22.7499 24.0611 21.6955 24.2346C21.5357 24.7116 21.0857 25.0586 20.5544 25.0586H19.7522C19.0881 25.0586 18.5487 24.5192 18.5487 23.8551C18.5487 23.191 19.0881 22.6517 19.7522 22.6517H20.5544C21.0071 22.6517 21.4001 22.9037 21.6061 23.2724C23.021 23.0257 24.3762 22.3616 25.4658 21.684C25.585 21.4076 25.6962 21.1284 25.7992 20.8411C26.2599 19.5591 26.5662 18.1713 26.7207 16.6589C26.7288 16.5803 26.7342 16.5018 26.7397 16.4232L26.7397 16.4231L26.7396 16.4224C26.7071 16.2383 26.6746 16.0542 26.6421 15.8674C26.615 15.7265 26.5933 15.5856 26.5716 15.4447L26.5716 15.4446C26.5689 15.4337 26.5689 15.4256 26.5689 15.4175C26.5378 15.2075 26.5086 14.9975 26.4795 14.7875C26.4504 14.5774 26.4212 14.3673 26.39 14.1571C26.3765 14.0704 26.344 13.9809 26.306 13.8996C26.2139 13.6991 26.0892 13.6747 25.9347 13.8292C25.8785 13.8854 25.8297 13.9471 25.79 13.9975C25.7818 14.0079 25.774 14.0178 25.7666 14.027C25.7432 13.954 25.7225 13.8786 25.7015 13.8025C25.6595 13.6497 25.6167 13.4941 25.5498 13.3494C25.3926 13.016 25.1216 12.8019 24.7584 12.6908C24.5415 12.6257 24.322 12.6095 24.1024 12.604C20.7932 14.3008 17.668 13.5852 15.6107 12.6691C15.2557 12.7125 14.9304 12.8642 14.6729 13.1353C14.4127 13.4117 14.3341 13.5961 14.2772 14.1327L14.2609 14.1083C14.2379 14.0776 14.2189 14.0496 14.2011 14.0234C14.1938 14.0126 14.1867 14.0021 14.1796 13.9918C13.9953 13.7316 13.811 13.7316 13.6511 14.0026C13.5698 14.1436 13.4911 14.2981 13.4505 14.4526C13.3594 14.7845 13.275 15.1178 13.1908 15.4505C13.1546 15.5933 13.1185 15.7359 13.0819 15.8783C13.0575 15.9813 13.0331 16.0789 13.006 16.1791C12.98 16.2745 12.9485 16.3676 12.9171 16.4609C12.8895 16.5425 12.862 16.6242 12.8379 16.7077C12.8224 16.7543 12.8232 16.8065 12.824 16.8566C12.8242 16.8676 12.8244 16.8785 12.8244 16.8893L12.824 16.8968C12.8214 16.9537 12.8189 17.0083 12.8189 17.0655C12.7864 18.3583 13.006 19.6458 13.4695 20.852C13.6836 21.4157 13.9465 22.0012 14.2555 22.5975C14.5781 23.2127 14.9494 23.8362 15.3776 24.4596C16.5702 26.1916 17.9959 27.1212 19.4975 27.1538Z" fill="black"/>
<path fill-rule="evenodd" clip-rule="evenodd" d="M66.8542 41.5237L66.8542 41.5233L66.8542 41.5231C66.6974 38.7085 66.3801 33.0106 65.9037 31.9022C65.1366 30.1268 64.1446 28.5114 62.418 27.5058C61.6428 27.0559 60.8379 26.6466 60.0139 26.2942C59.0081 25.8644 57.9953 25.4522 56.9839 25.0405L56.9838 25.0405C56.7388 24.9408 56.4938 24.8411 56.2491 24.7411C57.6639 24.6978 59.0354 24.3617 60.0816 23.9659C60.0441 23.9512 60.0109 23.9373 59.9799 23.9244C59.9371 23.9066 59.8987 23.8906 59.8594 23.8765C58.6803 23.4482 57.7099 22.7516 57.0703 21.6512C56.7776 21.1444 56.5743 20.6185 56.4388 20.0765H57.0134C57.5474 20.1036 57.7805 19.8759 57.9702 19.4178C58.9351 17.1031 59.1818 14.7043 58.8755 12.2376C58.5123 9.31844 57.5989 6.62696 55.7856 4.34473C55.7341 4.26883 55.6826 4.19294 55.6284 4.11705C55.211 3.54786 54.7366 3.0627 54.2162 2.65068C53.3326 1.81588 52.346 1.1084 51.1073 0.937634C50.4703 0.850899 49.8252 0.793981 49.1775 0.764165L49.1774 0.764162C49.1232 0.756032 49.069 0.747901 49.0148 0.737061H47.3615C47.3533 0.739771 47.3445 0.741803 47.3357 0.743836C47.3269 0.745869 47.3181 0.747902 47.31 0.750613C46.9576 0.761455 46.608 0.777717 46.2583 0.802112C44.689 0.913243 43.3771 1.62068 42.2387 2.6073C41.6478 3.05182 41.1328 3.5695 40.7154 4.17665C38.7964 6.51307 37.8478 9.28046 37.4846 12.2915C37.181 14.7852 37.4277 17.2138 38.4685 19.5231C38.5688 19.7427 38.848 20.0381 39.0404 20.0327H39.9918C39.4931 21.8433 38.4007 23.1823 36.5251 23.8897C36.4932 23.9024 36.4633 23.9171 36.4159 23.9401L36.4159 23.9402C36.3826 23.9564 36.3409 23.9767 36.2839 24.0035C37.612 24.4182 38.913 24.7245 40.168 24.7462C39.7805 24.9075 39.393 25.0682 39.0054 25.2288L39.0054 25.2288C37.6742 25.7805 36.344 26.3318 35.0235 26.9091C33.6954 27.4892 32.6302 28.3592 31.7981 29.4759C35.0019 30.14 40.0164 31.3543 41.7074 37.0788C42.1817 38.6833 42.4094 41.8681 42.5639 46.0124C43.4503 46.0643 44.2755 46.1085 44.9957 46.1471L44.9971 46.1472L44.9988 46.1473C45.6316 46.1812 46.1833 46.2108 46.6242 46.2374C52.2782 46.1886 56.3412 46.0206 60.3713 45.4269C62.3554 45.1342 64.3204 44.7412 66.2069 44.0311C66.9306 43.76 66.9902 43.6543 66.9333 42.8737L66.9337 42.8738C66.9148 42.6114 66.8883 42.1357 66.8542 41.5237ZM41.4475 9.78412C41.5261 9.07401 41.659 8.40449 41.827 7.78111C41.9436 7.34743 42.3366 7.03304 42.7865 7.05198H42.7973C44.3532 7.11974 45.9036 7.01674 47.4268 6.67251C47.9337 6.55867 48.4216 6.41231 48.8878 6.23884C49.2076 6.48007 49.5383 6.71046 49.8798 6.93542L50.077 7.06589C50.8965 7.60777 51.7215 8.15329 52.4466 8.80563C52.9923 9.29335 53.4722 9.85325 53.9531 10.4142C54.1697 10.6669 54.3865 10.9198 54.6096 11.1664C54.7988 10.0755 54.1944 9.34362 53.5871 8.60817C53.3418 8.31118 53.0961 8.01362 52.902 7.69161C53.8507 8.29333 54.6367 8.99534 55.1706 9.86539L55.3739 10.2259C55.6829 10.8412 55.8754 11.5323 55.9214 12.3265C55.9323 12.5162 55.935 12.7032 55.9323 12.8875C55.9377 13.1044 55.8266 13.782 55.6883 14.5328C55.4986 15.5628 55.1869 16.5602 54.7641 17.5034C53.5579 18.2569 52.0509 18.9995 50.4815 19.2733C50.2539 18.8668 49.8202 18.5903 49.3215 18.5903H48.4379C47.706 18.5903 47.1097 19.1839 47.1097 19.9185C47.1097 20.6503 47.7033 21.2466 48.4379 21.2466H49.3215C49.9069 21.2466 50.4056 20.8644 50.5791 20.3359C51.7175 20.1489 52.8153 19.745 53.8045 19.2598C52.9643 20.5473 51.8909 21.683 50.617 22.5883L50.6168 22.5884L50.6168 22.5885C50.5301 22.6507 50.4434 22.713 50.3541 22.7726C48.8497 23.7972 47.5759 23.5749 45.9875 22.7374C39.5718 19.3601 41.4475 9.78405 41.4475 9.78405L41.4475 9.78412ZM48.1941 35.4709L55.103 29.4049L57.9518 29.394C57.9518 29.394 56.6752 26.67 54.9432 24.6886C53.7506 24.5585 52.5905 24.1682 51.6364 23.3822C51.4426 23.4882 51.2505 23.5955 51.0588 23.7025C50.6474 23.9323 50.2383 24.1607 49.8204 24.3715C48.728 24.9218 47.6222 24.9136 46.538 24.3526C46.0681 24.1101 45.6099 23.8455 45.14 23.574C44.9322 23.4541 44.7222 23.3328 44.5079 23.2115C43.6215 23.9677 42.6946 24.3987 41.7378 24.6047C40.5262 25.8976 38.9053 27.8356 38.4174 29.4049H41.2716L48.1941 35.4709Z" fill="black"/>
<path d="M48.0173 30.0863C46.25 30.005 44.613 29.5198 43.2794 28.2568C42.6479 27.6578 42.5584 27.0696 43.049 26.6386C43.6372 26.1237 44.1143 26.4083 44.6075 26.8663C46.4859 28.6173 49.7086 28.6091 51.6032 26.8446C52.1046 26.3784 52.5898 26.1291 53.159 26.6603C53.6361 27.1021 53.5331 27.674 52.8907 28.2757C51.5301 29.5605 49.855 30.0159 48.0173 30.0864L48.0173 30.0863Z" fill="black"/>
</svg>
