<svg width="44" height="28" viewBox="0 0 44 28" fill="none" xmlns="http://www.w3.org/2000/svg">
<rect x="0.516846" y="0.751831" width="42.7543" height="26.7523" rx="1.215" fill="#184977"/>
<path fill-rule="evenodd" clip-rule="evenodd" d="M31.9972 14.5914H32.0175C32.0401 14.5914 32.0507 14.5738 32.0507 14.5454C32.0507 14.5162 32.034 14.5063 32.0164 14.5063H31.9972V14.5914ZM31.938 14.6872V14.6781C31.9593 14.6752 31.9635 14.6761 31.9635 14.662V14.5276C31.9635 14.5085 31.9615 14.5022 31.9386 14.5033V14.4939H32.0282C32.0587 14.4939 32.0872 14.5094 32.0872 14.5421C32.0872 14.5695 32.0701 14.5892 32.0459 14.597L32.0744 14.6388C32.0881 14.6573 32.1031 14.6752 32.1131 14.6814V14.6872H32.0791C32.0629 14.6872 32.0487 14.6514 32.0164 14.6037H31.9972V14.6638C31.9972 14.6761 32.0012 14.6752 32.0223 14.6781V14.6872H31.938ZM32.0249 14.7387C32.1031 14.7387 32.1632 14.6696 32.1632 14.5914C32.1632 14.5133 32.1043 14.4434 32.0249 14.4434C31.9461 14.4434 31.8863 14.5133 31.8863 14.5914C31.8863 14.6696 31.9461 14.7387 32.0249 14.7387ZM32.0249 14.4095C32.1248 14.4095 32.1997 14.4896 32.1997 14.5914C32.1997 14.6934 32.1248 14.7724 32.0249 14.7724C31.9253 14.7724 31.8501 14.6934 31.8501 14.5914C31.8501 14.4896 31.9253 14.4095 32.0249 14.4095Z" fill="white"/>
<path fill-rule="evenodd" clip-rule="evenodd" d="M31.4635 15.5138C31.4635 15.5842 31.5103 15.6052 31.5639 15.6124C31.6328 15.6178 31.7081 15.6178 31.7857 15.6089C31.8559 15.6004 31.9167 15.558 31.9465 15.5138C31.9733 15.475 31.9881 15.4261 31.9988 15.3871H32.0474C32.0288 15.4876 32.0054 15.586 31.9851 15.686C31.8374 15.686 31.6895 15.6792 31.5423 15.6792C31.3944 15.6792 31.2466 15.686 31.0989 15.686V15.6331H31.122C31.1829 15.6331 31.2484 15.6247 31.2484 15.5153V14.6124C31.2484 14.5207 31.1829 14.5123 31.122 14.5123H31.0989V14.4591C31.1878 14.4591 31.2754 14.4662 31.3641 14.4662C31.4498 14.4662 31.5337 14.4591 31.6195 14.4591V14.5123H31.5772C31.5136 14.5123 31.4635 14.5142 31.4635 14.6072V15.5138Z" fill="white"/>
<path fill-rule="evenodd" clip-rule="evenodd" d="M30.3907 14.6561H30.3874L30.2312 15.1536H30.5456L30.3907 14.6561ZM30.1455 15.4348C30.1292 15.4943 30.1089 15.5404 30.1089 15.5716C30.1089 15.6246 30.1799 15.6331 30.2345 15.6331H30.2533V15.686C30.1861 15.6824 30.1174 15.6792 30.0502 15.6792C29.9891 15.6792 29.929 15.6824 29.8691 15.686V15.6331H29.8784C29.9441 15.6331 29.9999 15.5926 30.0247 15.519L30.2937 14.7127C30.3154 14.6474 30.3455 14.5597 30.3555 14.4943C30.4091 14.4752 30.4763 14.4401 30.5083 14.4189C30.5134 14.4171 30.5168 14.4155 30.5219 14.4155C30.5266 14.4155 30.5296 14.4155 30.5334 14.4207C30.5386 14.4347 30.5433 14.4506 30.5488 14.4648L30.8575 15.3839C30.8772 15.4452 30.8978 15.5105 30.9195 15.5633C30.9396 15.6124 30.9751 15.6331 31.0305 15.6331H31.0405V15.686C30.965 15.6824 30.8892 15.6792 30.8089 15.6792C30.7266 15.6792 30.6424 15.6824 30.5569 15.686V15.6331H30.5755C30.614 15.6331 30.6798 15.6265 30.6798 15.5825C30.6798 15.5593 30.6644 15.5121 30.6458 15.4558L30.5806 15.2517H30.1998L30.1455 15.4348Z" fill="white"/>
<path fill-rule="evenodd" clip-rule="evenodd" d="M29.6142 15.3399L29.6175 15.3362V14.6773C29.6175 14.5333 29.5219 14.5123 29.4709 14.5123H29.4349V14.4591C29.5133 14.4591 29.5907 14.4662 29.6694 14.4662C29.7386 14.4662 29.8073 14.4591 29.8759 14.4591V14.5123H29.8508C29.7801 14.5123 29.7012 14.5261 29.7012 14.7351V15.5351C29.7012 15.5966 29.7032 15.6579 29.7113 15.7124H29.6474L28.7832 14.7037V15.4276C28.7832 15.581 28.8116 15.6331 28.9411 15.6331H28.9695V15.686C28.8973 15.686 28.8254 15.6792 28.753 15.6792C28.6775 15.6792 28.6001 15.686 28.5244 15.686V15.6331H28.5481C28.6643 15.6331 28.6988 15.5511 28.6988 15.4103V14.6701C28.6988 14.5717 28.6221 14.5123 28.5461 14.5123H28.5244V14.4591C28.5884 14.4591 28.6537 14.4662 28.7176 14.4662C28.7678 14.4662 28.8164 14.4591 28.8668 14.4591L29.6142 15.3399Z" fill="white"/>
<path fill-rule="evenodd" clip-rule="evenodd" d="M27.865 15.635C28.1912 15.635 28.2474 15.3345 28.2474 15.0784C28.2474 14.8214 28.1153 14.5104 27.8366 14.5104C27.543 14.5104 27.4557 14.7846 27.4557 15.0197C27.4557 15.3345 27.5934 15.635 27.865 15.635ZM27.8399 14.433C28.1976 14.433 28.4829 14.665 28.4829 15.0395C28.4829 15.4437 28.206 15.7123 27.8485 15.7123C27.4922 15.7123 27.2209 15.4596 27.2209 15.0813C27.2209 14.7162 27.4909 14.433 27.8399 14.433Z" fill="white"/>
<path fill-rule="evenodd" clip-rule="evenodd" d="M26.6819 15.6331C26.7427 15.6331 26.8062 15.6247 26.8062 15.533V14.6124C26.8062 14.5207 26.7427 14.5123 26.6819 14.5123H26.6584V14.4591C26.7239 14.4591 26.8245 14.4662 26.9067 14.4662C26.9906 14.4662 27.0914 14.4591 27.1706 14.4591V14.5123H27.1472C27.0864 14.5123 27.0222 14.5207 27.0222 14.6124V15.533C27.0222 15.6247 27.0864 15.6331 27.1472 15.6331H27.1706V15.686C27.0897 15.686 26.9893 15.6792 26.9052 15.6792C26.8228 15.6792 26.7239 15.686 26.6584 15.686V15.6331H26.6819Z" fill="white"/>
<path fill-rule="evenodd" clip-rule="evenodd" d="M25.635 14.5471C25.5089 14.5471 25.5042 14.5788 25.4789 14.707H25.4282C25.4351 14.6578 25.4437 14.6087 25.4486 14.5575C25.4555 14.5084 25.4587 14.4591 25.4587 14.4083H25.499C25.5124 14.4611 25.5545 14.4591 25.5996 14.4591H26.4657C26.5109 14.4591 26.5527 14.4575 26.5562 14.4048L26.5965 14.412C26.59 14.4591 26.5836 14.5066 26.5782 14.5543C26.5742 14.6015 26.5742 14.6492 26.5742 14.6964L26.5243 14.7162C26.5213 14.6509 26.5127 14.5471 26.4002 14.5471H26.125V15.482C26.125 15.6177 26.1839 15.6331 26.2643 15.6331H26.296V15.686C26.2308 15.686 26.1133 15.6792 26.0227 15.6792C25.9219 15.6792 25.8042 15.686 25.7386 15.686V15.6331H25.7706C25.8633 15.6331 25.9103 15.6246 25.9103 15.486V14.5471H25.635Z" fill="white"/>
<path fill-rule="evenodd" clip-rule="evenodd" d="M24.9116 14.6561H24.9082L24.752 15.1536H25.0658L24.9116 14.6561ZM24.6667 15.4348C24.6497 15.4943 24.6292 15.5404 24.6292 15.5716C24.6292 15.6246 24.7003 15.6331 24.7555 15.6331H24.7741V15.686C24.7066 15.6824 24.6379 15.6792 24.5707 15.6792C24.5102 15.6792 24.45 15.6824 24.3896 15.686V15.6331H24.3995C24.4649 15.6331 24.5206 15.5926 24.5452 15.519L24.8141 14.7127C24.8357 14.6474 24.8664 14.5597 24.8762 14.4943C24.9299 14.4752 24.9971 14.4401 25.0291 14.4189C25.0342 14.4171 25.0368 14.4155 25.0424 14.4155C25.0472 14.4155 25.0506 14.4155 25.0542 14.4207C25.0592 14.4347 25.0641 14.4506 25.0695 14.4648L25.3782 15.3839C25.3981 15.4452 25.4183 15.5105 25.44 15.5633C25.4604 15.6124 25.4957 15.6331 25.551 15.6331H25.561V15.686C25.4856 15.6824 25.4098 15.6792 25.3296 15.6792C25.2474 15.6792 25.1634 15.6824 25.078 15.686V15.6331H25.0964C25.1347 15.6331 25.2003 15.6265 25.2003 15.5825C25.2003 15.5593 25.1853 15.5121 25.1663 15.4558L25.1011 15.2517H24.7199L24.6667 15.4348Z" fill="white"/>
<path fill-rule="evenodd" clip-rule="evenodd" d="M24.1344 15.3399L24.1377 15.3362V14.6773C24.1377 14.5333 24.042 14.5123 23.9919 14.5123H23.9549V14.4591C24.0341 14.4591 24.1107 14.4662 24.1899 14.4662C24.2589 14.4662 24.3276 14.4591 24.3966 14.4591V14.5123H24.3715C24.3009 14.5123 24.222 14.5261 24.222 14.7351V15.5351C24.222 15.5966 24.2235 15.6579 24.2317 15.7124H24.1683L23.3039 14.7037V15.4276C23.3039 15.581 23.3325 15.6331 23.4618 15.6331H23.4903V15.686C23.418 15.686 23.3456 15.6792 23.2736 15.6792C23.198 15.6792 23.1208 15.686 23.0454 15.686V15.6331H23.0684C23.1845 15.6331 23.2197 15.5511 23.2197 15.4103V14.6701C23.2197 14.5717 23.1425 14.5123 23.0671 14.5123H23.0454V14.4591C23.1088 14.4591 23.1749 14.4662 23.2383 14.4662C23.2885 14.4662 23.3371 14.4591 23.3877 14.4591L24.1344 15.3399Z" fill="white"/>
<path fill-rule="evenodd" clip-rule="evenodd" d="M22.2131 15.0533H22.2951C22.463 15.0533 22.5534 14.9868 22.5534 14.7791C22.5534 14.6232 22.4578 14.5226 22.3084 14.5226C22.2577 14.5226 22.2362 14.5283 22.2131 14.5296V15.0533ZM21.9982 14.6456C21.9982 14.5171 21.931 14.5123 21.879 14.5123H21.8484V14.4591C21.9021 14.4591 22.0063 14.4662 22.1089 14.4662C22.2092 14.4662 22.2901 14.4591 22.3793 14.4591C22.5902 14.4591 22.7784 14.5189 22.7784 14.7687C22.7784 14.9268 22.6779 15.0233 22.5454 15.0785L22.8324 15.5276C22.8793 15.6023 22.9125 15.6228 22.995 15.6331V15.686C22.9396 15.686 22.886 15.6792 22.8306 15.6792C22.7784 15.6792 22.7246 15.686 22.6728 15.686C22.5436 15.5087 22.4326 15.3189 22.3235 15.1165H22.2131V15.4926C22.2131 15.6283 22.2732 15.6331 22.3504 15.6331H22.381V15.686C22.285 15.686 22.1876 15.6792 22.0919 15.6792C22.0114 15.6792 21.9326 15.686 21.8484 15.686V15.6331H21.879C21.9408 15.6331 21.9982 15.6037 21.9982 15.5385V14.6456Z" fill="white"/>
<path fill-rule="evenodd" clip-rule="evenodd" d="M20.8167 15.6331H20.8401C20.9004 15.6331 20.9641 15.6247 20.9641 15.533V14.6124C20.9641 14.5207 20.9004 14.5123 20.8401 14.5123H20.8167V14.4591C20.9186 14.4591 21.0939 14.4662 21.2345 14.4662C21.3757 14.4662 21.5499 14.4591 21.6637 14.4591C21.6611 14.5349 21.6626 14.6509 21.6677 14.7282L21.6169 14.7423C21.609 14.6282 21.5887 14.5369 21.4124 14.5369H21.1797V14.9969H21.3787C21.4796 14.9969 21.5018 14.9377 21.5114 14.8426H21.5615C21.5583 14.9113 21.5567 14.9795 21.5567 15.0481C21.5567 15.1153 21.5583 15.1817 21.5615 15.2485L21.5114 15.2589C21.5018 15.1536 21.4966 15.085 21.3805 15.085H21.1797V15.4943C21.1797 15.6089 21.2767 15.6089 21.3839 15.6089C21.5855 15.6089 21.6741 15.5948 21.7245 15.3943L21.7715 15.4066C21.7497 15.5001 21.7296 15.5926 21.7145 15.686C21.6072 15.686 21.414 15.6792 21.2629 15.6792C21.1119 15.6792 20.9121 15.686 20.8167 15.686V15.6331Z" fill="white"/>
<path fill-rule="evenodd" clip-rule="evenodd" d="M19.8009 14.5471C19.675 14.5471 19.6704 14.5788 19.6451 14.707H19.5947C19.6016 14.6578 19.6098 14.6087 19.6151 14.5575C19.6217 14.5084 19.625 14.4591 19.625 14.4083H19.6655C19.6789 14.4611 19.7208 14.4591 19.7662 14.4591H20.6322C20.6774 14.4591 20.7195 14.4575 20.7228 14.4048L20.7628 14.412C20.7567 14.4591 20.7498 14.5066 20.7447 14.5543C20.7412 14.6015 20.7412 14.6492 20.7412 14.6964L20.6911 14.7162C20.6877 14.6509 20.6792 14.5471 20.5667 14.5471H20.2915V15.482C20.2915 15.6177 20.3506 15.6331 20.4308 15.6331H20.4626V15.686C20.3973 15.686 20.2795 15.6792 20.189 15.6792C20.0886 15.6792 19.9708 15.686 19.9052 15.686V15.6331H19.9371C20.0298 15.6331 20.0764 15.6246 20.0764 15.486V14.5471H19.8009Z" fill="white"/>
<path fill-rule="evenodd" clip-rule="evenodd" d="M19.2879 15.3399L19.2913 15.3362V14.6773C19.2913 14.5333 19.1955 14.5123 19.145 14.5123H19.1082V14.4591C19.187 14.4591 19.2645 14.4662 19.3433 14.4662C19.412 14.4662 19.4811 14.4591 19.5495 14.4591V14.5123H19.5246C19.454 14.5123 19.3749 14.5261 19.3749 14.7351V15.5351C19.3749 15.5966 19.377 15.6579 19.385 15.7124H19.3213L18.457 14.7037V15.4276C18.457 15.581 18.4852 15.6331 18.6146 15.6331H18.6431V15.686C18.5711 15.686 18.4987 15.6792 18.4265 15.6792C18.3515 15.6792 18.2739 15.686 18.1985 15.686V15.6331H18.2219C18.3378 15.6331 18.3732 15.5511 18.3732 15.4103V14.6701C18.3732 14.5717 18.2956 14.5123 18.2203 14.5123H18.1985V14.4591C18.262 14.4591 18.3277 14.4662 18.3914 14.4662C18.4417 14.4662 18.4907 14.4591 18.5409 14.4591L19.2879 15.3399Z" fill="white"/>
<path fill-rule="evenodd" clip-rule="evenodd" d="M17.6228 15.6331H17.6464C17.7066 15.6331 17.7706 15.6247 17.7706 15.533V14.6124C17.7706 14.5207 17.7066 14.5123 17.6464 14.5123H17.6228V14.4591C17.6884 14.4591 17.789 14.4662 17.8715 14.4662C17.9552 14.4662 18.0559 14.4591 18.1348 14.4591V14.5123H18.1112C18.051 14.5123 17.987 14.5207 17.987 14.6124V15.533C17.987 15.6247 18.051 15.6331 18.1112 15.6331H18.1348V15.686C18.0543 15.686 17.9533 15.6792 17.8697 15.6792C17.7873 15.6792 17.6884 15.686 17.6228 15.686V15.6331Z" fill="white"/>
<path fill-rule="evenodd" clip-rule="evenodd" d="M30.931 13.3903C30.931 13.5131 31.0418 13.7196 31.2489 13.7196C31.5792 13.7196 31.718 13.3803 31.718 13.0928C31.718 12.7442 31.4648 12.4536 31.2245 12.4536C31.1096 12.4536 31.0143 12.5312 30.931 12.6059V13.3903ZM30.931 12.5115C31.0543 12.4021 31.2212 12.2794 31.3907 12.2794C31.7486 12.2794 31.9645 12.6059 31.9645 12.9574C31.9645 13.3803 31.6685 13.8037 31.2268 13.8037C30.9986 13.8037 30.8787 13.7262 30.7983 13.691L30.7057 13.7649L30.6413 13.7296C30.6685 13.5392 30.684 13.3513 30.684 13.1546V11.7661C30.684 11.5558 30.6381 11.5492 30.5208 11.5138V11.4621C30.6445 11.4201 30.7735 11.3623 30.8386 11.3231C30.8721 11.3039 30.897 11.2875 30.9067 11.2875C30.9251 11.2875 30.931 11.307 30.931 11.333V12.5115Z" fill="white"/>
<path fill-rule="evenodd" clip-rule="evenodd" d="M30.3173 13.5776C30.3173 13.6359 30.351 13.6389 30.4036 13.6389C30.4405 13.6389 30.4871 13.6359 30.5272 13.6359V13.7039C30.3942 13.7168 30.1414 13.7844 30.0824 13.8038L30.0672 13.7943V13.533C29.8824 13.6911 29.74 13.8038 29.5209 13.8038C29.3544 13.8038 29.1819 13.6911 29.1819 13.42V12.5928C29.1819 12.5086 29.1694 12.4277 28.9971 12.4119V12.3505C29.1084 12.3469 29.3544 12.328 29.3948 12.328C29.4291 12.328 29.4291 12.3505 29.4291 12.4214V13.2546C29.4291 13.3514 29.4291 13.6293 29.6974 13.6293C29.802 13.6293 29.9408 13.5452 30.0703 13.4328V12.5634C30.0703 12.499 29.9222 12.4637 29.8115 12.431V12.3729C30.089 12.3535 30.262 12.328 30.2926 12.328C30.3173 12.328 30.3173 12.3505 30.3173 12.3861V13.5776Z" fill="white"/>
<path fill-rule="evenodd" clip-rule="evenodd" d="M28.3364 13.6712H28.3953C28.4817 13.6712 28.5435 13.6712 28.5435 13.5643V11.7661C28.5435 11.5558 28.4971 11.5492 28.3799 11.5138V11.4621C28.5031 11.4201 28.6327 11.3623 28.6977 11.3231C28.7314 11.3039 28.7563 11.2875 28.7654 11.2875C28.7841 11.2875 28.79 11.307 28.79 11.333V13.5643C28.79 13.6712 28.8581 13.6712 28.9445 13.6712H28.9969V13.7554C28.8925 13.7554 28.7841 13.7491 28.6728 13.7491C28.5621 13.7491 28.4511 13.7523 28.3364 13.7554V13.6712Z" fill="white"/>
<path fill-rule="evenodd" clip-rule="evenodd" d="M28.2253 12.0854H28.1483C28.0897 11.7077 27.8335 11.5559 27.4885 11.5559C27.1334 11.5559 26.618 11.8045 26.618 12.5793C26.618 13.2323 27.0629 13.7006 27.5376 13.7006C27.8429 13.7006 28.096 13.4811 28.1578 13.1418L28.2284 13.161L28.1578 13.6326C28.0282 13.7168 27.6792 13.8038 27.4756 13.8038C26.7539 13.8038 26.2979 13.316 26.2979 12.5895C26.2979 11.9273 26.8618 11.4523 27.4667 11.4523C27.7167 11.4523 27.957 11.5365 28.1946 11.6236L28.2253 12.0854Z" fill="white"/>
<path fill-rule="evenodd" clip-rule="evenodd" d="M24.5546 13.3065C24.595 13.5195 24.7184 13.7006 24.9436 13.7006C25.1254 13.7006 25.1929 13.584 25.1929 13.4712C25.1929 13.0903 24.5209 13.2125 24.5209 12.6928C24.5209 12.5115 24.6599 12.2795 24.9993 12.2795C25.0978 12.2795 25.2304 12.3085 25.3506 12.3729L25.3724 12.7023H25.3014C25.2706 12.499 25.1625 12.3824 24.965 12.3824C24.8415 12.3824 24.7247 12.4571 24.7247 12.5957C24.7247 12.974 25.4401 12.8575 25.4401 13.3646C25.4401 13.5776 25.2766 13.8038 24.9096 13.8038C24.7859 13.8038 24.641 13.7587 24.5331 13.6943L24.4993 13.3226L24.5546 13.3065Z" fill="white"/>
<path fill-rule="evenodd" clip-rule="evenodd" d="M23.3669 13.6713H23.4506C23.5368 13.6713 23.598 13.6713 23.598 13.5644V12.6572C23.598 12.5571 23.4843 12.5376 23.4378 12.5115V12.4637C23.6631 12.3633 23.7867 12.2795 23.8146 12.2795C23.8328 12.2795 23.842 12.2887 23.842 12.3214V12.612H23.8486C23.9255 12.4861 24.0551 12.2795 24.2432 12.2795C24.3203 12.2795 24.4189 12.334 24.4189 12.4505C24.4189 12.5376 24.3606 12.6155 24.2741 12.6155C24.1781 12.6155 24.1781 12.5376 24.0704 12.5376C24.0179 12.5376 23.8453 12.612 23.8453 12.806V13.5644C23.8453 13.6713 23.9068 13.6713 23.9932 13.6713H24.1658V13.7555C23.9962 13.7524 23.8669 13.7492 23.7342 13.7492C23.6077 13.7492 23.4782 13.7524 23.3669 13.7555V13.6713Z" fill="white"/>
<path fill-rule="evenodd" clip-rule="evenodd" d="M22.9447 12.7604C23.0216 12.7604 23.0306 12.7186 23.0306 12.6799C23.0306 12.5149 22.9351 12.3824 22.7623 12.3824C22.5744 12.3824 22.4448 12.5278 22.4077 12.7604H22.9447ZM22.3988 12.8641C22.3922 12.8932 22.3922 12.9414 22.3988 13.0513C22.4168 13.3583 22.6053 13.6101 22.8519 13.6101C23.0216 13.6101 23.1546 13.5132 23.2684 13.3936L23.3116 13.4388C23.1697 13.6359 22.994 13.8038 22.7412 13.8038C22.2504 13.8038 22.1519 13.3065 22.1519 13.0998C22.1519 12.4666 22.559 12.2795 22.7746 12.2795C23.0246 12.2795 23.2933 12.4439 23.2961 12.7862C23.2961 12.806 23.2961 12.8251 23.2933 12.8446L23.2652 12.8641H22.3988Z" fill="white"/>
<path fill-rule="evenodd" clip-rule="evenodd" d="M20.8189 12.7087C20.8189 12.5894 20.785 12.5571 20.6401 12.4961V12.4343C20.7725 12.3892 20.8991 12.3469 21.0471 12.2795C21.0565 12.2795 21.0654 12.2858 21.0654 12.3113V12.5218C21.2416 12.3892 21.3929 12.2795 21.5995 12.2795C21.8618 12.2795 21.9542 12.4795 21.9542 12.7314V13.5644C21.9542 13.6713 22.0223 13.6713 22.1083 13.6713H22.164V13.7555C22.0557 13.7555 21.9479 13.7492 21.8372 13.7492C21.7259 13.7492 21.6149 13.7524 21.5039 13.7555V13.6713H21.5594C21.6458 13.6713 21.7072 13.6713 21.7072 13.5644V12.7284C21.7072 12.5439 21.5995 12.4537 21.4237 12.4537C21.3248 12.4537 21.1677 12.5376 21.0654 12.6089V13.5644C21.0654 13.6713 21.1338 13.6713 21.2202 13.6713H21.2757V13.7555C21.1677 13.7555 21.0594 13.7492 20.9481 13.7492C20.8375 13.7492 20.7262 13.7524 20.6152 13.7555V13.6713H20.6712C20.7574 13.6713 20.8189 13.6713 20.8189 13.5644V12.7087Z" fill="white"/>
<path fill-rule="evenodd" clip-rule="evenodd" d="M20.1962 11.7819C20.1157 11.7819 20.0448 11.7045 20.0448 11.6206C20.0448 11.5396 20.1187 11.4651 20.1962 11.4651C20.2762 11.4651 20.3474 11.533 20.3474 11.6206C20.3474 11.7077 20.2793 11.7819 20.1962 11.7819ZM19.866 13.6712H19.9244C20.011 13.6712 20.0725 13.6712 20.0725 13.5643V12.6895C20.0725 12.5472 20.0265 12.5277 19.912 12.4637V12.4118C20.0572 12.3663 20.2298 12.3056 20.2422 12.2953C20.264 12.2827 20.2822 12.2795 20.2979 12.2795C20.3131 12.2795 20.3194 12.2987 20.3194 12.3244V13.5643C20.3194 13.6712 20.3873 13.6712 20.4735 13.6712H20.5259V13.7554C20.421 13.7554 20.3131 13.7491 20.2021 13.7491C20.0911 13.7491 19.9801 13.7523 19.866 13.7554V13.6712Z" fill="white"/>
<path fill-rule="evenodd" clip-rule="evenodd" d="M18.2123 13.374C18.2123 13.6229 18.3822 13.6518 18.5332 13.6518C19.1997 13.6518 19.4183 13.1255 19.4183 12.6443C19.4183 12.0404 19.0482 11.6043 18.4529 11.6043C18.3264 11.6043 18.2681 11.6137 18.2123 11.6172V13.374ZM17.91 11.8592C17.91 11.5688 17.7652 11.5879 17.6265 11.5845V11.501C17.7466 11.5071 17.8699 11.5071 17.9904 11.5071C18.1199 11.5071 18.2958 11.501 18.5241 11.501C19.3228 11.501 19.7578 12.0593 19.7578 12.6314C19.7578 12.9513 19.579 13.7554 18.487 13.7554C18.33 13.7554 18.1846 13.7491 18.0399 13.7491C17.9009 13.7491 17.7652 13.7523 17.6265 13.7554V13.6712C17.8111 13.6518 17.9009 13.6455 17.91 13.4259V11.8592Z" fill="white"/>
<path fill-rule="evenodd" clip-rule="evenodd" d="M14.8508 13.6031C14.8495 12.844 14.3962 12.1965 13.7577 11.9402V15.2661C14.3962 15.0094 14.8495 14.3627 14.8508 13.6031ZM12.5392 15.2655V11.9405C11.9012 12.1976 11.4487 12.8443 11.4471 13.6031C11.4487 14.362 11.9012 15.0087 12.5392 15.2655ZM13.1487 10.7918C11.6659 10.7924 10.4647 12.0506 10.4644 13.6031C10.4647 15.1556 11.6659 16.4136 13.1487 16.4139C14.6317 16.4136 15.8333 15.1556 15.8338 13.6031C15.8333 12.0506 14.6317 10.7924 13.1487 10.7918ZM13.1423 16.6792C11.5196 16.6873 10.1841 15.3108 10.1841 13.6352C10.1841 11.8041 11.5196 10.5375 13.1423 10.5378H13.9027C15.506 10.5375 16.9697 11.8035 16.9697 13.6352C16.9697 15.3102 15.506 16.6792 13.9027 16.6792H13.1423Z" fill="white"/>
</svg>
