<svg width="44" height="28" viewBox="0 0 44 28" fill="none" xmlns="http://www.w3.org/2000/svg">
<rect x="0.516846" y="0.751831" width="42.7543" height="26.7523" rx="1.215" fill="#F9F9F9"/>
<path fill-rule="evenodd" clip-rule="evenodd" d="M43.2753 16.0963C43.2753 18.7268 43.2753 23.9228 43.2753 26.2787C43.2753 26.9497 42.7403 27.4908 42.0692 27.4908C36.9682 27.4908 17.193 27.4908 12.0696 27.4908C25.3382 24.766 34.921 21.0504 43.2753 16.0963Z" fill="#F58220"/>
<path fill-rule="evenodd" clip-rule="evenodd" d="M32.6404 11.8239C32.6404 11.7623 32.6008 11.728 32.5278 11.728H32.4316V12.0394H32.5024V11.9183L32.5858 12.0394H32.6747L32.5748 11.9107C32.617 11.899 32.6404 11.8672 32.6404 11.8239ZM32.5156 11.866H32.5024V11.7857H32.5165C32.5514 11.7857 32.5693 11.7986 32.5693 11.8251C32.5693 11.8521 32.5506 11.866 32.5156 11.866Z" fill="#231F20"/>
<path fill-rule="evenodd" clip-rule="evenodd" d="M32.543 11.6091C32.3968 11.6091 32.28 11.7323 32.28 11.8861C32.28 12.0392 32.3974 12.1627 32.543 12.1627C32.6864 12.1627 32.8034 12.038 32.8034 11.8861C32.8034 11.7341 32.6864 11.6091 32.543 11.6091ZM32.5427 12.1128C32.426 12.1128 32.3317 12.0123 32.3317 11.8867C32.3317 11.7598 32.4254 11.6594 32.5427 11.6594C32.6569 11.6594 32.7503 11.7617 32.7503 11.8867C32.7503 12.011 32.6569 12.1128 32.5427 12.1128Z" fill="#231F20"/>
<path fill-rule="evenodd" clip-rule="evenodd" d="M32.1712 12.6192C32.1712 11.9453 31.7298 11.5577 30.9589 11.5577H29.967V15.1535H30.6355V13.7085H30.7231L31.6472 15.1535H32.4695L31.3898 13.6387C31.8942 13.5309 32.1712 13.1697 32.1712 12.6192ZM30.8299 13.2126H30.6355V12.1232H30.841C31.2575 12.1232 31.4841 12.3073 31.4841 12.6569C31.4841 13.0181 31.2575 13.2126 30.8299 13.2126Z" fill="#231F20"/>
<path fill-rule="evenodd" clip-rule="evenodd" d="M27.6304 15.1535H29.526V14.5445H28.2982V13.5734H29.4793V12.9651H28.2982V12.1667H29.526V11.5577H27.6304V15.1535Z" fill="#231F20"/>
<path fill-rule="evenodd" clip-rule="evenodd" d="M25.6772 13.9732L24.7624 11.5577H24.033L25.4875 15.2457H25.8468L27.3268 11.5577H26.6026L25.6772 13.9732Z" fill="#231F20"/>
<g filter="url(#filter0_i_439_1998)">
<path fill-rule="evenodd" clip-rule="evenodd" d="M20.5161 13.3381C20.5161 14.4235 21.2987 15.2344 22.3428 15.2344C23.3613 15.2344 24.1652 14.4128 24.1652 13.3593C24.1652 12.3128 23.3665 11.4906 22.3428 11.4906C21.334 11.4906 20.5161 12.3174 20.5161 13.3381Z" fill="#F48027"/>
</g>
<path fill-rule="evenodd" clip-rule="evenodd" d="M17.6162 13.3574C17.6162 14.4152 18.4078 15.2343 19.4248 15.2343C19.7129 15.2343 19.9593 15.1752 20.2629 15.0242V14.1992C19.9949 14.4798 19.7588 14.5923 19.4555 14.5923C18.7826 14.5923 18.3045 14.0801 18.3045 13.3519C18.3045 12.6626 18.7975 12.1177 19.4248 12.1177C19.743 12.1177 19.9847 12.2368 20.2629 12.522V11.6971C19.9701 11.5408 19.7278 11.4768 19.4406 11.4768C18.428 11.4768 17.6162 12.3128 17.6162 13.3574Z" fill="#231F20"/>
<path fill-rule="evenodd" clip-rule="evenodd" d="M16.4197 12.9368C16.0183 12.7812 15.9007 12.6782 15.9007 12.4843C15.9007 12.2583 16.1103 12.0858 16.399 12.0858C16.5992 12.0858 16.7636 12.1722 16.9387 12.3762L17.2875 11.8974C16.9997 11.6324 16.6558 11.4979 16.2805 11.4979C15.6748 11.4979 15.2121 11.94 15.2121 12.5275C15.2121 13.0241 15.4278 13.2771 16.0545 13.5142C16.3167 13.611 16.4501 13.6757 16.5169 13.7192C16.6506 13.8114 16.7177 13.9401 16.7177 14.0908C16.7177 14.3827 16.4965 14.5978 16.1981 14.5978C15.8794 14.5978 15.6228 14.4314 15.4687 14.1183L15.0378 14.5558C15.3455 15.0297 15.7153 15.2401 16.2244 15.2401C16.918 15.2401 17.4057 14.7543 17.4057 14.0592C17.4057 13.4879 17.1804 13.2287 16.4197 12.9368Z" fill="#231F20"/>
<path fill-rule="evenodd" clip-rule="evenodd" d="M14.1177 11.5577H14.7855V15.1535H14.1177V11.5577Z" fill="#231F20"/>
<path fill-rule="evenodd" clip-rule="evenodd" d="M11.9702 11.5577H10.9883V15.1535H11.9656C12.4837 15.1535 12.8588 15.0243 13.1878 14.7391C13.5777 14.3984 13.8092 13.8862 13.8092 13.3575C13.8092 12.296 13.0535 11.5577 11.9702 11.5577ZM12.7517 14.2584C12.5403 14.4585 12.2686 14.5445 11.8365 14.5445H11.6567V12.1667H11.8365C12.2686 12.1667 12.5298 12.2476 12.7517 12.4575C12.9828 12.6734 13.1203 13.0073 13.1203 13.352C13.1203 13.6978 12.9828 14.0437 12.7517 14.2584Z" fill="#231F20"/>
<defs>
<filter id="filter0_i_439_1998" x="20.5161" y="11.4906" width="3.64917" height="3.74377" filterUnits="userSpaceOnUse" color-interpolation-filters="sRGB">
<feFlood flood-opacity="0" result="BackgroundImageFix"/>
<feBlend mode="normal" in="SourceGraphic" in2="BackgroundImageFix" result="shape"/>
<feColorMatrix in="SourceAlpha" type="matrix" values="0 0 0 0 0 0 0 0 0 0 0 0 0 0 0 0 0 0 127 0" result="hardAlpha"/>
<feOffset/>
<feGaussianBlur stdDeviation="0.5"/>
<feComposite in2="hardAlpha" operator="arithmetic" k2="-1" k3="1"/>
<feColorMatrix type="matrix" values="0 0 0 0 0 0 0 0 0 0 0 0 0 0 0 0 0 0 0.5 0"/>
<feBlend mode="normal" in2="shape" result="effect1_innerShadow_439_1998"/>
</filter>
</defs>
</svg>
