<svg width="59" height="50" viewBox="0 0 59 50" fill="none" xmlns="http://www.w3.org/2000/svg">
<path fill-rule="evenodd" clip-rule="evenodd" d="M50.3557 1.49247C48.5649 0.812767 46.6536 0.504256 44.7399 0.689844L44.74 0.689745C42.7034 0.875345 40.7294 1.55265 39.0664 2.6035C37.5238 3.58925 36.2271 4.88598 35.3015 6.42854C34.3158 7.97109 33.6987 9.75946 33.5132 11.6105C33.2673 13.8929 33.6361 16.1754 34.6243 18.212C35.8585 20.9259 38.2036 23.1482 40.9802 24.3196C43.6312 25.4307 46.779 25.6163 49.5556 24.6907C51.2837 24.1364 52.8865 23.2109 54.1832 21.9768C55.4775 20.8055 56.526 19.3256 57.2057 17.7204C58.0685 15.6864 58.377 13.4642 58.0685 11.3046C57.8202 9.45352 57.143 7.60246 56.0318 5.99721C54.6122 3.96055 52.6382 2.418 50.3557 1.49247ZM40.6667 10.4367C40.9752 8.89415 42.0864 7.47698 43.506 6.79727L43.506 6.79729C44.6171 6.24294 45.9138 6.12001 47.2708 6.48878C48.4446 6.79729 49.5533 7.53723 50.233 8.52545C50.5415 9.01956 50.4186 9.69924 49.9245 9.94509C49.5533 10.1909 49.1218 10.1909 48.8133 9.94509C48.6895 9.86145 48.6204 9.77888 48.5515 9.69666C48.5173 9.65569 48.483 9.6148 48.4422 9.57391C47.8878 8.89423 47.1454 8.46279 46.2826 8.33987C45.5402 8.21695 44.6773 8.40254 44.0603 8.83397C43.4433 9.2027 42.9492 9.81972 42.7034 10.4994H45.9741C46.2826 10.4994 46.5911 10.6224 46.7767 10.9309C46.9623 11.2394 46.9623 11.6708 46.7767 11.9793C46.6538 12.2878 46.2826 12.4734 45.9741 12.4734H42.5178V13.9533H45.9741C46.2826 13.893 46.5911 14.0786 46.7767 14.3244C47.0249 14.633 47.0249 15.1271 46.8394 15.4356C46.6562 15.7441 46.3477 15.9297 45.9765 15.9297H42.7685C43.0143 16.5467 43.5084 17.1011 44.1254 17.4722C44.8654 17.9037 45.7909 18.0266 46.5935 17.7807C47.3335 17.5951 48.0132 17.101 48.4446 16.484C48.6277 16.1755 48.9989 16.0526 49.3074 16.0526C49.6762 16.0526 49.9847 16.2984 50.1703 16.6069C50.2932 16.9154 50.2932 17.2866 50.1076 17.5952C49.1821 18.8292 47.7022 19.6945 46.1597 19.8174C44.6798 19.9403 43.0746 19.3233 42.0261 18.2122C41.3489 17.5952 40.915 16.7298 40.6692 15.867H39.4978C39.1893 15.867 38.8808 15.6814 38.6952 15.3729C38.5096 15.1271 38.5096 14.7559 38.6325 14.4474C38.8157 14.1389 39.1242 13.893 39.4954 13.893H40.5438V12.4131H39.4954C39.0013 12.4131 38.5698 11.9191 38.5698 11.4249C38.5698 10.9308 39.0013 10.4367 39.4954 10.4367H40.6667Z" fill="black"/>
<path d="M1.54853 16.7324C2.28846 15.6839 3.46228 15.0669 4.75655 15.0669H14.8146V26.0505C14.2603 25.3106 13.5806 24.6935 12.9009 24.1994C12.1609 23.6451 11.2956 23.2739 10.3701 23.0883C9.63015 22.9654 8.82753 22.9654 8.14782 23.3341C7.5308 23.6427 7.03669 24.2597 6.85109 24.9394C6.60524 25.8022 6.72816 26.7904 7.09693 27.5931C7.59103 28.8271 8.39367 29.9382 9.44211 30.8011H0.926597V19.0777C0.808493 18.1521 1.05434 17.3495 1.54843 16.7325L1.54853 16.7324Z" fill="black"/>
<path d="M16.7882 15.0042H30.5484C30.9798 18.3351 32.5224 21.4829 34.9302 23.8282C37.0898 25.9877 39.9291 27.4676 42.8886 28.0244C45.3566 28.5185 47.8874 28.3329 50.2928 27.593V30.6781H22.0326C22.7123 30.1237 23.2667 29.444 23.7608 28.7041C24.2549 27.9015 24.6863 26.9157 24.749 25.9275C24.8117 25.1876 24.6261 24.4476 24.132 23.8306C23.7005 23.2763 22.9606 22.9678 22.2182 22.9051C21.2927 22.8424 20.4298 23.0907 19.6272 23.4595C18.5788 24.0138 17.5906 24.7562 16.8506 25.6817C16.788 22.1628 16.788 18.5835 16.788 15.0042L16.7882 15.0042Z" fill="black"/>
<path d="M9.20128 24.9393C9.69538 24.8164 10.1268 24.9393 10.6209 25.1249C11.4838 25.4961 12.2864 26.0505 12.9034 26.7302C13.4578 27.3472 13.9519 28.0871 14.2001 28.8898C14.3231 29.2609 14.3857 29.6924 14.2628 30.0611C14.2001 30.307 13.8916 30.4323 13.6458 30.4323C13.0914 30.4949 12.5973 30.3094 12.1032 30.1238C11.2404 29.7526 10.5607 29.1355 9.94366 28.4583C9.44956 27.9039 9.08081 27.287 8.83252 26.5446C8.7096 26.1734 8.64694 25.7419 8.76986 25.3732C8.76745 25.1852 8.95304 24.9996 9.20129 24.9394L9.20128 24.9393Z" fill="black"/>
<path d="M21.356 24.9395C21.6645 24.8768 22.0357 24.8165 22.3442 25.0021C22.59 25.125 22.6527 25.3733 22.7154 25.6191C22.778 26.1132 22.5924 26.6074 22.4069 27.0388C21.9754 27.9643 21.3584 28.7042 20.5558 29.3213C19.9388 29.8154 19.1988 30.2468 18.3962 30.4324C18.0877 30.4951 17.7165 30.4951 17.408 30.3697C17.1622 30.2468 17.0995 29.9383 17.0995 29.6298C17.0995 29.0754 17.2851 28.5814 17.5309 28.0872C17.9624 27.2846 18.5794 26.5447 19.3193 25.9904C19.9363 25.4938 20.616 25.1227 21.356 24.9395L21.356 24.9395Z" fill="black"/>
<path d="M0.808594 32.6521H13.3347C11.9778 34.0091 10.6208 35.366 9.26142 36.7254C8.9529 37.0339 8.89024 37.4654 9.07583 37.8366C9.26142 38.2077 9.63018 38.4536 10.0014 38.3909C10.2472 38.3909 10.4955 38.268 10.6811 38.0824C12.038 36.7255 13.4577 35.3685 14.8146 33.9489V49.4972H4.81949C4.07956 49.4972 3.33963 49.3116 2.65992 48.8802C1.54878 48.2004 0.808853 46.9062 0.808853 45.5492V32.6522L0.808594 32.6521Z" fill="black"/>
<path d="M18.2709 32.712H50.2931V45.8551C50.2304 46.718 49.9219 47.5833 49.3049 48.2605C48.6878 49.0005 47.7623 49.4946 46.8368 49.6175C46.4053 49.6802 46.0341 49.6175 45.6027 49.6802H16.7885V34.0689C18.1454 35.4885 19.565 36.8455 20.922 38.2025C21.1076 38.388 21.4161 38.511 21.6619 38.511C21.9704 38.511 22.3416 38.3254 22.5248 38.0169C22.7104 37.7084 22.7104 37.3372 22.5874 37.0913C22.4645 36.9057 22.2789 36.7202 22.156 36.5972C20.7991 35.2427 19.565 33.946 18.2707 32.7119L18.2709 32.712Z" fill="black"/>
</svg>
