<svg width="31" height="31" viewBox="0 0 31 31" fill="none" xmlns="http://www.w3.org/2000/svg">
<path fill-rule="evenodd" clip-rule="evenodd" d="M15.5 0.50415C7.21573 0.50415 0.5 7.21988 0.5 15.5042C0.5 23.7884 7.21573 30.5042 15.5 30.5042C23.7843 30.5042 30.5 23.7884 30.5 15.5042C30.5 7.21988 23.7843 0.50415 15.5 0.50415ZM12.202 7.55248C13.0554 7.51365 13.3281 7.50415 15.5007 7.50415H15.4983C17.6716 7.50415 17.9433 7.51365 18.7966 7.55248C19.6483 7.59148 20.23 7.72632 20.74 7.92415C21.2666 8.12832 21.7116 8.40166 22.1567 8.84666C22.6017 9.29134 22.875 9.73767 23.08 10.2638C23.2767 10.7725 23.4117 11.3539 23.4517 12.2055C23.49 13.0589 23.5 13.3315 23.5 15.5042C23.5 17.6769 23.49 17.9489 23.4517 18.8023C23.4117 19.6536 23.2767 20.2351 23.08 20.744C22.875 21.27 22.6017 21.7163 22.1567 22.161C21.7121 22.606 21.2665 22.88 20.7405 23.0843C20.2315 23.2821 19.6495 23.417 18.7978 23.456C17.9444 23.4948 17.6726 23.5043 15.4998 23.5043C13.3272 23.5043 13.0547 23.4948 12.2014 23.456C11.3499 23.417 10.7684 23.2821 10.2594 23.0843C9.73352 22.88 9.28719 22.606 8.84268 22.161C8.39784 21.7163 8.12451 21.27 7.92 20.7438C7.72234 20.2351 7.5875 19.6538 7.54833 18.8021C7.50967 17.9488 7.5 17.6769 7.5 15.5042C7.5 13.3315 7.51 13.0587 7.54817 12.2054C7.5865 11.354 7.7215 10.7725 7.91984 10.2637C8.12484 9.73767 8.39818 9.29134 8.84318 8.84666C9.28785 8.40183 9.73419 8.12849 10.2604 7.92415C10.769 7.72632 11.3504 7.59148 12.202 7.55248Z" fill="black"/>
<path fill-rule="evenodd" clip-rule="evenodd" d="M14.7831 8.94585C14.9225 8.94563 15.0724 8.9457 15.2341 8.94577L15.5008 8.94585C17.6368 8.94585 17.89 8.95351 18.7335 8.99185C19.5135 9.02752 19.9368 9.15785 20.2188 9.26735C20.5922 9.41235 20.8583 9.58569 21.1382 9.86569C21.4182 10.1457 21.5915 10.4124 21.7368 10.7857C21.8464 11.0674 21.9769 11.4907 22.0124 12.2707C22.0507 13.1141 22.059 13.3674 22.059 15.5024C22.059 17.6374 22.0507 17.8908 22.0124 18.7341C21.9767 19.5141 21.8464 19.9375 21.7368 20.2191C21.5918 20.5925 21.4182 20.8583 21.1382 21.1381C20.8582 21.4181 20.5923 21.5915 20.2188 21.7365C19.9372 21.8465 19.5135 21.9765 18.7335 22.0122C17.8901 22.0505 17.6368 22.0588 15.5008 22.0588C13.3646 22.0588 13.1114 22.0505 12.2681 22.0122C11.4881 21.9762 11.0647 21.8458 10.7826 21.7363C10.4092 21.5913 10.1426 21.418 9.86256 21.138C9.58256 20.858 9.40922 20.592 9.26389 20.2185C9.15439 19.9368 9.02388 19.5135 8.98838 18.7334C8.95005 17.8901 8.94238 17.6368 8.94238 15.5004C8.94238 13.3641 8.95005 13.1121 8.98838 12.2687C9.02405 11.4887 9.15439 11.0654 9.26389 10.7834C9.40889 10.41 9.58256 10.1434 9.86256 9.86336C10.1426 9.58335 10.4092 9.41002 10.7826 9.26468C11.0646 9.15468 11.4881 9.02468 12.2681 8.98885C13.0061 8.95551 13.2921 8.94551 14.7831 8.94385V8.94585ZM19.7712 10.2742C19.2412 10.2742 18.8112 10.7037 18.8112 11.2339C18.8112 11.7639 19.2412 12.1939 19.7712 12.1939C20.3012 12.1939 20.7312 11.7639 20.7312 11.2339C20.7312 10.7039 20.3012 10.2739 19.7712 10.2739V10.2742ZM11.3924 15.5042C11.3924 13.2354 13.2318 11.396 15.5006 11.3959C17.7695 11.3959 19.6085 13.2354 19.6085 15.5042C19.6085 17.7731 17.7696 19.6118 15.5008 19.6118C13.2319 19.6118 11.3924 17.7731 11.3924 15.5042Z" fill="black"/>
<path fill-rule="evenodd" clip-rule="evenodd" d="M15.5008 12.8375C16.9735 12.8375 18.1675 14.0314 18.1675 15.5042C18.1675 16.9769 16.9735 18.1709 15.5008 18.1709C14.028 18.1709 12.8341 16.9769 12.8341 15.5042C12.8341 14.0314 14.028 12.8375 15.5008 12.8375V12.8375Z" fill="black"/>
</svg>
