<svg width="44" height="28" viewBox="0 0 44 28" fill="none" xmlns="http://www.w3.org/2000/svg">
<rect x="0.516846" y="0.751831" width="42.7543" height="26.7523" rx="1.215" fill="#14457C"/>
<path fill-rule="evenodd" clip-rule="evenodd" d="M24.1153 14.1097C24.1153 17.7907 21.1741 20.7743 17.5458 20.7743C13.9172 20.7743 10.9758 17.7907 10.9758 14.1097C10.9758 10.4289 13.9172 7.44495 17.5458 7.44495C21.1741 7.44495 24.1153 10.4289 24.1153 14.1097Z" fill="#D82332"/>
<path fill-rule="evenodd" clip-rule="evenodd" d="M26.4307 7.44495C24.7329 7.44495 23.1862 8.09827 22.0201 9.17005C21.783 9.38849 21.5614 9.62442 21.3572 9.87561H22.6844C22.8656 10.0995 23.0328 10.3349 23.1852 10.5815H20.856C20.7168 10.808 20.59 11.0434 20.4776 11.2874H23.5636C23.6691 11.5158 23.7619 11.7511 23.8419 11.9929H20.1994C20.1235 12.2229 20.0596 12.4583 20.0084 12.6984H24.0325C24.1287 13.1534 24.18 13.6255 24.18 14.1097C24.18 14.8496 24.0613 15.5618 23.8419 16.227H20.1994C20.2792 16.4687 20.3721 16.7042 20.4774 16.933H23.5636C23.4509 17.1763 23.3247 17.4119 23.1847 17.6387H20.856C21.008 17.8846 21.1755 18.1203 21.3572 18.3439H22.6839C22.48 18.5953 22.2584 18.8312 22.0204 19.0496C23.1864 20.1214 24.7329 20.7743 26.4307 20.7743C30.059 20.7743 33.0004 17.7907 33.0004 14.1097C33.0004 10.4292 30.059 7.44495 26.4307 7.44495Z" fill="#F1AB3E"/>
<path fill-rule="evenodd" clip-rule="evenodd" d="M32.0519 17.7691C32.0519 17.6514 32.1468 17.556 32.2639 17.556C32.3811 17.556 32.4756 17.6514 32.4756 17.7691C32.4756 17.8868 32.3811 17.9823 32.2639 17.9823C32.1468 17.9823 32.0519 17.8868 32.0519 17.7691ZM32.2639 17.9312C32.3525 17.9312 32.4248 17.8585 32.4248 17.7691C32.4248 17.6793 32.3525 17.6072 32.2639 17.6072C32.1748 17.6072 32.1027 17.6793 32.1027 17.7691C32.1027 17.8585 32.1748 17.9312 32.2639 17.9312ZM32.2351 17.8626H32.1916V17.6756H32.2705C32.2868 17.6756 32.3036 17.6756 32.3181 17.6846C32.3329 17.6952 32.3416 17.7131 32.3416 17.7316C32.3416 17.7528 32.3295 17.7726 32.3093 17.7801L32.3437 17.8626H32.2955L32.2669 17.7887H32.2351V17.8626ZM32.2351 17.7564H32.2592C32.2681 17.7564 32.2776 17.7571 32.2857 17.7528C32.2928 17.7481 32.2966 17.7398 32.2966 17.7312C32.2966 17.7241 32.2918 17.7158 32.2859 17.7121C32.2783 17.7076 32.2662 17.7086 32.2582 17.7086H32.2351V17.7564Z" fill="#F1AB3E"/>
<path fill-rule="evenodd" clip-rule="evenodd" d="M32.0519 15.6628C32.0519 15.5447 32.147 15.4496 32.2634 15.4496C32.3807 15.4496 32.4752 15.5447 32.4752 15.6628C32.4752 15.7801 32.3807 15.8758 32.2634 15.8758C32.147 15.8758 32.0519 15.7801 32.0519 15.6628ZM32.2634 15.8248C32.3527 15.8248 32.4248 15.7521 32.4248 15.6628C32.4248 15.5735 32.3527 15.5008 32.2634 15.5008C32.1746 15.5008 32.1027 15.5735 32.1027 15.6628C32.1027 15.7521 32.1746 15.8248 32.2634 15.8248ZM32.2349 15.7559H32.1916V15.569H32.2703C32.2868 15.569 32.3033 15.5696 32.3178 15.5786C32.3331 15.5887 32.3414 15.6066 32.3414 15.6252C32.3414 15.6463 32.3293 15.6662 32.3095 15.6737L32.3437 15.7559H32.2955L32.2669 15.682H32.2349V15.7559ZM32.2349 15.65H32.259C32.2677 15.65 32.2778 15.6508 32.2855 15.6463C32.2926 15.6419 32.2962 15.6329 32.2962 15.6248C32.2962 15.6177 32.292 15.6097 32.2859 15.6054C32.2785 15.6012 32.2662 15.6023 32.2582 15.6023H32.2349V15.65Z" fill="#FFFFFE"/>
<path fill-rule="evenodd" clip-rule="evenodd" d="M31.3799 12.6058L31.2213 13.5825C31.0267 13.3222 30.8171 13.1337 30.5406 13.1337C30.1806 13.1337 29.8531 13.4105 29.6386 13.8181C29.3398 13.7552 29.0313 13.6483 29.0313 13.6483L29.0311 13.651C29.0547 13.4231 29.0649 13.2845 29.0625 13.2371H28.4073C28.3183 14.0883 28.1595 14.95 28.0356 15.8015L28.0028 15.9864H28.7166C28.8128 15.3519 28.8864 14.8245 28.9408 14.4068C29.1847 14.1832 29.3068 13.9885 29.5528 14.0012C29.4438 14.2689 29.38 14.5771 29.38 14.8933C29.38 15.5803 29.7225 16.0339 30.2412 16.0339C30.5027 16.0339 30.7031 15.9424 30.8988 15.7305L30.8652 15.9862H31.5401L32.0833 12.6058H31.3799ZM30.4878 15.3513C30.2451 15.3513 30.1222 15.1687 30.1222 14.8093C30.1222 14.2689 30.352 13.8858 30.6754 13.8858C30.9205 13.8858 31.0533 14.075 31.0533 14.4243C31.0533 14.9693 30.8197 15.3513 30.4878 15.3513Z" fill="#0C2D5A"/>
<path fill-rule="evenodd" clip-rule="evenodd" d="M27.2797 14.8239C27.2052 14.815 27.1722 14.8126 27.1209 14.8126C26.7167 14.8126 26.5121 14.9531 26.5121 15.2308C26.5121 15.4018 26.612 15.5112 26.7677 15.5112C27.058 15.5112 27.2677 15.2306 27.2797 14.8239ZM27.7988 16.0485C27.7039 16.0485 27.2079 16.0485 27.2079 16.0485L27.2213 15.7638C27.041 15.9886 26.8005 16.0962 26.474 16.0962C26.0872 16.0962 25.8225 15.7897 25.8225 15.345C25.8225 14.6754 26.2831 14.2855 27.0745 14.2855C27.1554 14.2855 27.2588 14.2929 27.3648 14.3068C27.3869 14.2158 27.3928 14.1772 27.3928 14.1279C27.3928 13.9461 27.269 13.8784 26.9356 13.8784C26.5868 13.8742 26.2993 13.9623 26.1806 14.0016C26.1882 13.9561 26.2795 13.3835 26.2795 13.3835C26.635 13.2777 26.8693 13.2378 27.1331 13.2378C27.7455 13.2378 28.0701 13.517 28.0693 14.044C28.0707 14.1853 28.0476 14.36 28.0117 14.5888C27.9498 14.9866 27.8171 15.841 27.7988 16.0485Z" fill="#0C2D5A"/>
<path fill-rule="evenodd" clip-rule="evenodd" d="M25.3983 13.3378C25.5964 13.3378 25.7813 13.3901 26.0357 13.5202L26.1525 12.7867C26.0476 12.7449 25.68 12.5005 25.3685 12.5005C24.8913 12.5005 24.4874 12.741 24.2039 13.1372C23.7899 12.9981 23.6195 13.2791 23.411 13.5593L23.2257 13.6031C23.2397 13.511 23.2525 13.4193 23.2484 13.3266H22.593C22.5038 14.1778 22.3453 15.0395 22.2211 15.891L22.1887 16.0759H22.9023C23.0213 15.2908 23.0864 14.7883 23.1261 14.4479L23.3948 14.2969C23.4352 14.1451 23.5605 14.0941 23.8125 14.1004C23.7797 14.2796 23.7618 14.4685 23.7618 14.6638C23.7618 15.5634 24.2408 16.1234 25.0083 16.1234C25.206 16.1234 25.376 16.0971 25.639 16.0244L25.7639 15.2541C25.5275 15.3719 25.3338 15.4274 25.1582 15.4274C24.7435 15.4274 24.4927 15.1168 24.4927 14.6038C24.4927 13.8593 24.8656 13.3378 25.3983 13.3378Z" fill="#0C2D5A"/>
<path fill-rule="evenodd" clip-rule="evenodd" d="M21.9434 15.985C21.6998 16.0606 21.4644 16.0964 21.2158 16.0962C20.4219 16.0957 20.0084 15.6749 20.0084 14.8698C20.0084 13.9298 20.5346 13.2378 21.2488 13.2378C21.8338 13.2378 22.207 13.6252 22.207 14.2332C22.207 14.4347 22.181 14.6313 22.1198 14.9091H20.7079C20.6599 15.3079 20.9117 15.4743 21.324 15.4743C21.5776 15.4743 21.8066 15.4211 22.0614 15.301L21.9434 15.985ZM21.5449 14.3546C21.5487 14.2971 21.62 13.8639 21.2148 13.8639C20.9891 13.8639 20.8277 14.0389 20.7619 14.3546H21.5449Z" fill="#0C2D5A"/>
<path fill-rule="evenodd" clip-rule="evenodd" d="M19.735 16.0451C19.5399 16.1075 19.3877 16.1346 19.2228 16.1346C18.8581 16.1346 18.659 15.9219 18.659 15.5308C18.654 15.4089 18.7116 15.0898 18.7569 14.7979C18.798 14.5408 19.0662 12.9218 19.0662 12.9218H19.7751L19.6922 13.3378H20.0561L19.9593 13.9984H19.5941C19.5118 14.5216 19.3943 15.1725 19.3929 15.2589C19.3929 15.4011 19.4677 15.4626 19.6373 15.4626C19.7185 15.4626 19.7814 15.4545 19.8296 15.4367L19.735 16.0451Z" fill="#0C2D5A"/>
<path fill-rule="evenodd" clip-rule="evenodd" d="M16.956 14.1684C16.956 14.5165 17.1223 14.7558 17.4993 14.9362C17.788 15.074 17.8327 15.1148 17.8327 15.2397C17.8327 15.411 17.7054 15.4884 17.4231 15.4884C17.2102 15.4884 17.0124 15.4549 16.7839 15.3802C16.7839 15.3802 16.6905 15.9859 16.686 16.0146C16.8481 16.0506 16.9927 16.0834 17.4282 16.0962C18.1809 16.0962 18.5285 15.8056 18.5285 15.1773C18.5285 14.7994 18.3829 14.5778 18.0257 14.4114C17.7267 14.2719 17.6923 14.241 17.6923 14.1125C17.6923 13.9639 17.8107 13.8874 18.0413 13.8874C18.1812 13.8874 18.3725 13.9032 18.5538 13.9291L18.6553 13.2916C18.4706 13.262 18.1907 13.2378 18.0275 13.2378C17.2297 13.2378 16.9536 13.6606 16.956 14.1684Z" fill="#0C2D5A"/>
<path fill-rule="evenodd" clip-rule="evenodd" d="M16.0673 14.8239C15.9925 14.815 15.9595 14.8126 15.9081 14.8126C15.5038 14.8126 15.2992 14.9531 15.2992 15.2308C15.2992 15.4018 15.3991 15.5112 15.5549 15.5112C15.8455 15.5112 16.0549 15.2306 16.0673 14.8239ZM16.586 16.0485C16.491 16.0485 15.9951 16.0485 15.9951 16.0485L16.0086 15.7638C15.8284 15.9886 15.5878 16.0962 15.2611 16.0962C14.8746 16.0962 14.6096 15.7897 14.6096 15.345C14.6096 14.6754 15.0705 14.2855 15.8617 14.2855C15.9427 14.2855 16.0463 14.2929 16.1524 14.3068C16.1745 14.2158 16.1804 14.1772 16.1804 14.1279C16.1804 13.9461 16.0561 13.8784 15.723 13.8784C15.3739 13.8742 15.0863 13.9623 14.9679 14.0016C14.9754 13.9561 15.0669 13.3835 15.0669 13.3835C15.4222 13.2777 15.6567 13.2378 15.9205 13.2378C16.5329 13.2378 16.8573 13.517 16.8567 14.044C16.8579 14.1853 16.8349 14.36 16.799 14.5888C16.7371 14.9866 16.6042 15.841 16.586 16.0485Z" fill="#0C2D5A"/>
<path fill-rule="evenodd" clip-rule="evenodd" d="M14.2511 16.0914H13.538L13.9466 13.4929L13.0343 16.0914H12.5482L12.4881 13.508L12.0587 16.0914H11.3911L11.9487 12.7112H12.9744L13.003 14.8038L13.695 12.7112H14.8027L14.2511 16.0914Z" fill="#0C2D5A"/>
<path fill-rule="evenodd" clip-rule="evenodd" d="M31.8239 15.8808H31.1493L31.1828 15.6249C30.9871 15.8369 30.7865 15.9285 30.5252 15.9285C30.0068 15.9285 29.6639 15.4754 29.6639 14.7876C29.6639 13.8732 30.1956 13.1024 30.8244 13.1024C31.1011 13.1024 31.3105 13.217 31.5056 13.4774L31.6638 12.5005H32.3672L31.8239 15.8808ZM30.7717 15.2455C31.1041 15.2455 31.3373 14.8637 31.3373 14.3192C31.3373 13.9699 31.2045 13.7802 30.9592 13.7802C30.6358 13.7802 30.4061 14.1632 30.4061 14.7039C30.4061 15.0638 30.5292 15.2455 30.7717 15.2455Z" fill="#FFFFFE"/>
<path fill-rule="evenodd" clip-rule="evenodd" d="M28.6148 13.0566C28.5256 13.9075 28.367 14.7694 28.2429 15.6207L28.2104 15.8057H28.9238C29.1789 14.1245 29.2404 13.7964 29.6407 13.8374C29.7044 13.4933 29.8229 13.192 29.9114 13.0401C29.6127 12.9769 29.4458 13.1481 29.2272 13.4736C29.2446 13.3328 29.2761 13.1962 29.2702 13.0566H28.6148Z" fill="#FFFFFE"/>
<path fill-rule="evenodd" clip-rule="evenodd" d="M27.4873 14.6132C27.4129 14.6043 27.3798 14.6019 27.3286 14.6019C26.9244 14.6019 26.7197 14.7424 26.7197 15.0201C26.7197 15.1911 26.8196 15.3005 26.9754 15.3005C27.2656 15.3005 27.4754 15.0199 27.4873 14.6132ZM28.0064 15.8378C27.9115 15.8378 27.4156 15.8378 27.4156 15.8378L27.429 15.5531C27.2486 15.778 27.0082 15.8855 26.6816 15.8855C26.2948 15.8855 26.0302 15.579 26.0302 15.1343C26.0302 14.4647 26.4907 14.0748 27.2822 14.0748C27.363 14.0748 27.4664 14.0822 27.5724 14.0961C27.5946 14.0051 27.6005 13.9665 27.6005 13.9172C27.6005 13.7354 27.4766 13.6677 27.1432 13.6677C26.7944 13.6635 26.5069 13.7516 26.3882 13.7909C26.3958 13.7454 26.4872 13.1728 26.4872 13.1728C26.8427 13.067 27.0769 13.0271 27.3407 13.0271C27.9532 13.0271 28.2777 13.3063 28.277 13.8334C28.2783 13.9746 28.2553 14.1493 28.2194 14.3781C28.1575 14.7759 28.0247 15.6303 28.0064 15.8378Z" fill="#FFFFFE"/>
<path fill-rule="evenodd" clip-rule="evenodd" d="M26.3441 12.5707L26.2273 13.3043C25.9726 13.1744 25.7881 13.1219 25.5901 13.1219C25.0576 13.1219 24.6841 13.644 24.6841 14.3886C24.6841 14.9016 24.9352 15.2116 25.3498 15.2116C25.5254 15.2116 25.7195 15.1565 25.9555 15.0382L25.8302 15.8086C25.5677 15.8813 25.3977 15.9077 25.2 15.9077C24.432 15.9077 23.9537 15.3476 23.9537 14.4482C23.9537 13.2397 24.615 12.3951 25.5601 12.3951C25.8716 12.3951 26.2394 12.529 26.3441 12.5707Z" fill="#FFFFFE"/>
<path fill-rule="evenodd" clip-rule="evenodd" d="M22.8012 13.0566C22.7115 13.9075 22.5527 14.7694 22.4289 15.6207L22.3964 15.8057H23.1099C23.3652 14.1245 23.4265 13.7964 23.8262 13.8374C23.8903 13.4933 24.0091 13.192 24.0973 13.0401C23.7988 12.9769 23.6318 13.1481 23.4135 13.4736C23.4308 13.3328 23.4624 13.1962 23.4561 13.0566H22.8012Z" fill="#FFFFFE"/>
<path fill-rule="evenodd" clip-rule="evenodd" d="M22.151 15.7743C21.9074 15.8499 21.6721 15.8857 21.4234 15.8855C20.6296 15.885 20.2161 15.4642 20.2161 14.6591C20.2161 13.7191 20.7422 13.0271 21.4564 13.0271C22.0415 13.0271 22.4146 13.4145 22.4146 14.0225C22.4146 14.224 22.3887 14.4206 22.3274 14.6984H20.9155C20.8676 15.0972 21.1193 15.2637 21.5316 15.2637C21.7852 15.2637 22.0143 15.2104 22.2691 15.0903L22.151 15.7743ZM21.7525 14.144C21.7564 14.0864 21.8276 13.6533 21.4225 13.6533C21.1968 13.6533 21.0353 13.8282 20.9695 14.144H21.7525Z" fill="#FFFFFE"/>
<path fill-rule="evenodd" clip-rule="evenodd" d="M19.9427 15.8346C19.7476 15.8969 19.5954 15.924 19.4304 15.924C19.0658 15.924 18.8666 15.7113 18.8666 15.3203C18.8617 15.1983 18.9193 14.8793 18.9645 14.5873C19.0057 14.3302 19.2738 12.7112 19.2738 12.7112H19.9827L19.8999 13.1272H20.2638L20.1669 13.7878H19.8018C19.7194 14.3111 19.6019 14.962 19.6006 15.0483C19.6006 15.1905 19.6753 15.252 19.845 15.252C19.9261 15.252 19.9891 15.2439 20.0372 15.2261L19.9427 15.8346Z" fill="#FFFFFE"/>
<path fill-rule="evenodd" clip-rule="evenodd" d="M17.1637 13.9577C17.1637 14.3058 17.3301 14.5451 17.707 14.7256C17.9958 14.8633 18.0404 14.9041 18.0404 15.029C18.0404 15.2004 17.9131 15.2777 17.6308 15.2777C17.418 15.2777 17.2201 15.2442 16.9917 15.1695C16.9917 15.1695 16.8983 15.7752 16.8938 15.8039C17.0559 15.8399 17.2005 15.8727 17.6359 15.8855C18.3886 15.8855 18.7362 15.5949 18.7362 14.9666C18.7362 14.5887 18.5907 14.3671 18.2334 14.2007C17.9344 14.0612 17.9001 14.0303 17.9001 13.9018C17.9001 13.7532 18.0185 13.6767 18.2491 13.6767C18.389 13.6767 18.5803 13.6925 18.7616 13.7184L18.8631 13.0809C18.6784 13.0513 18.3985 13.0271 18.2353 13.0271C17.4374 13.0271 17.1614 13.4499 17.1637 13.9577Z" fill="#FFFFFE"/>
<path fill-rule="evenodd" clip-rule="evenodd" d="M16.2749 14.6132C16.2002 14.6043 16.1672 14.6019 16.1158 14.6019C15.7115 14.6019 15.5069 14.7424 15.5069 15.0201C15.5069 15.1911 15.6067 15.3005 15.7626 15.3005C16.0532 15.3005 16.2626 15.0199 16.2749 14.6132ZM16.7936 15.8378C16.6986 15.8378 16.2028 15.8378 16.2028 15.8378L16.2163 15.5531C16.036 15.778 15.7955 15.8855 15.4687 15.8855C15.0822 15.8855 14.8173 15.579 14.8173 15.1343C14.8173 14.4647 15.2781 14.0748 16.0694 14.0748C16.1503 14.0748 16.254 14.0822 16.3601 14.0961C16.3822 14.0051 16.388 13.9665 16.388 13.9172C16.388 13.7354 16.2637 13.6677 15.9307 13.6677C15.5815 13.6635 15.2939 13.7516 15.1756 13.7909C15.183 13.7454 15.2745 13.1728 15.2745 13.1728C15.6299 13.067 15.8643 13.0271 16.1281 13.0271C16.7406 13.0271 17.0649 13.3063 17.0643 13.8334C17.0655 13.9746 17.0425 14.1493 17.0067 14.3781C16.9447 14.7759 16.8118 15.6303 16.7936 15.8378Z" fill="#FFFFFE"/>
<path fill-rule="evenodd" clip-rule="evenodd" d="M14.4588 15.8808H13.7456L14.1543 13.2822L13.242 15.8808H12.7559L12.6957 13.2973L12.2663 15.8808H11.5988L12.1564 12.5005H13.1821L13.2106 14.5931L13.9027 12.5005H15.0104L14.4588 15.8808Z" fill="#FFFFFE"/>
</svg>
