<svg width="44" height="28" viewBox="0 0 44 28" fill="none" xmlns="http://www.w3.org/2000/svg">
<path fill-rule="evenodd" clip-rule="evenodd" d="M0.593506 1.96683C0.593506 1.2958 1.13748 0.751831 1.80851 0.751831H41.8899C42.5609 0.751831 43.1049 1.29581 43.1049 1.96683V26.2891C43.1049 26.9601 42.5609 27.5041 41.8899 27.5041H1.80851C1.13748 27.5041 0.593506 26.9601 0.593506 26.2891V1.96683Z" fill="#2890C3"/>
<path fill-rule="evenodd" clip-rule="evenodd" d="M28.3188 17.2998L27.8636 20.2383C27.8547 20.2952 27.898 20.3467 27.9548 20.3467H28.4127C28.4885 20.3467 28.5531 20.2907 28.5649 20.2147L29.0138 17.329C29.0226 17.2721 28.9793 17.2206 28.9224 17.2206H28.4101C28.3645 17.2206 28.3258 17.2541 28.3188 17.2998Z" fill="white"/>
<path fill-rule="evenodd" clip-rule="evenodd" d="M26.9527 19.3104C26.9014 19.6183 26.6606 19.825 26.3532 19.825C26.1992 19.825 26.0758 19.7747 25.9966 19.6795C25.9179 19.5852 25.8885 19.4507 25.9134 19.3011C25.9611 18.9958 26.2059 18.7825 26.5085 18.7825C26.6594 18.7825 26.7818 18.8333 26.8626 18.9294C26.944 19.0261 26.976 19.1614 26.9527 19.3104ZM27.6929 18.2615H27.1618C27.1163 18.2615 27.0776 18.295 27.0704 18.3407L27.0471 18.4913L27.0099 18.4368C26.8949 18.2674 26.6385 18.2107 26.3826 18.2107C25.7958 18.2107 25.2946 18.6619 25.1971 19.2947C25.1463 19.6104 25.2184 19.9121 25.3948 20.1226C25.5569 20.316 25.7881 20.3966 26.0637 20.3966C26.5367 20.3966 26.799 20.0884 26.799 20.0884L26.7752 20.2381C26.7664 20.295 26.8097 20.3465 26.8666 20.3465H27.3448C27.4208 20.3465 27.4853 20.2907 27.4971 20.2146L27.7843 18.3699C27.7931 18.313 27.7497 18.2615 27.6929 18.2615Z" fill="white"/>
<path fill-rule="evenodd" clip-rule="evenodd" d="M24.5058 18.2744C24.4451 18.6784 24.1411 18.6784 23.847 18.6784H23.6797L23.7971 17.9242C23.8041 17.8786 23.8428 17.8451 23.8883 17.8451H23.9651C24.1653 17.8451 24.3543 17.8451 24.4519 17.9607C24.5102 18.03 24.5278 18.1327 24.5058 18.2744ZM24.3778 17.2205H23.2687C23.1927 17.2205 23.1282 17.2765 23.1164 17.3525L22.6679 20.2382C22.659 20.2951 22.7025 20.3466 22.7591 20.3466H23.3283C23.3813 20.3466 23.4265 20.3074 23.4348 20.2543L23.5621 19.4361C23.5738 19.3601 23.6385 19.304 23.7143 19.304H24.0652C24.7958 19.304 25.2175 18.9454 25.3276 18.2343C25.3772 17.9235 25.3296 17.6791 25.1862 17.508C25.0285 17.32 24.7489 17.2205 24.3778 17.2205Z" fill="white"/>
<path fill-rule="evenodd" clip-rule="evenodd" d="M22.6107 18.2615H22.0768C22.0258 18.2615 21.978 18.2872 21.9494 18.3301L21.213 19.4305L20.9009 18.3731C20.8813 18.3069 20.8213 18.2615 20.7532 18.2615H20.2285C20.1652 18.2615 20.1206 18.3247 20.141 18.3855L20.7287 20.1363L20.1759 20.9278C20.1326 20.9899 20.1763 21.0758 20.2514 21.0758H20.7847C20.8351 21.0758 20.8825 21.0507 20.9114 21.0086L22.6866 18.4087C22.7291 18.3465 22.6853 18.2615 22.6107 18.2615Z" fill="white"/>
<path fill-rule="evenodd" clip-rule="evenodd" d="M19.0417 19.3104C18.9904 19.6183 18.7495 19.825 18.4422 19.825C18.2882 19.825 18.1648 19.7747 18.0856 19.6795C18.0071 19.5852 17.9775 19.4507 18.0023 19.3011C18.0501 18.9958 18.2949 18.7825 18.5975 18.7825C18.7484 18.7825 18.8708 18.8333 18.9516 18.9294C19.033 19.0261 19.065 19.1614 19.0417 19.3104ZM19.7819 18.2615H19.2508C19.2053 18.2615 19.1665 18.295 19.1594 18.3407L19.1361 18.4913L19.099 18.4368C18.9839 18.2674 18.7275 18.2107 18.4715 18.2107C17.8848 18.2107 17.3836 18.6619 17.286 19.2947C17.2353 19.6104 17.3074 19.9121 17.4838 20.1226C17.6458 20.316 17.8771 20.3966 18.1526 20.3966C18.6257 20.3966 18.888 20.0884 18.888 20.0884L18.8642 20.2381C18.8554 20.295 18.8987 20.3465 18.9556 20.3465H19.4338C19.5098 20.3465 19.5742 20.2907 19.5861 20.2146L19.8733 18.3699C19.8821 18.313 19.8387 18.2615 19.7819 18.2615Z" fill="white"/>
<path fill-rule="evenodd" clip-rule="evenodd" d="M16.5948 18.2744C16.5341 18.6784 16.2301 18.6784 15.936 18.6784H15.7686L15.886 17.9242C15.8931 17.8786 15.9318 17.8451 15.9773 17.8451H16.0541C16.2543 17.8451 16.4433 17.8451 16.5409 17.9607C16.5992 18.03 16.6168 18.1327 16.5948 18.2744ZM16.4668 17.2205H15.3577C15.2817 17.2205 15.2172 17.2765 15.2054 17.3525L14.7569 20.2382C14.748 20.2951 14.7914 20.3466 14.8481 20.3466H15.3778C15.4536 20.3466 15.5181 20.2906 15.53 20.2147L15.6511 19.4361C15.6628 19.3601 15.7275 19.304 15.8032 19.304H16.1542C16.8848 19.304 17.3065 18.9454 17.4166 18.2343C17.4662 17.9235 17.4186 17.6791 17.2752 17.508C17.1175 17.32 16.8379 17.2205 16.4668 17.2205Z" fill="white"/>
<path fill-rule="evenodd" clip-rule="evenodd" d="M24.8883 7.39781C24.4728 6.91568 23.7217 6.70898 22.7608 6.70898H19.9721C19.7755 6.70898 19.6084 6.85453 19.5776 7.05188L18.4165 14.5489C18.3934 14.6967 18.5058 14.8306 18.653 14.8306H20.3747L20.8071 12.0387L20.7937 12.1261C20.8245 11.9288 20.9903 11.7832 21.1866 11.7832H22.0047C23.612 11.7832 24.8704 11.1186 25.2381 9.19619C25.249 9.13933 25.2584 9.084 25.2666 9.02992C25.2202 9.0049 25.2202 9.0049 25.2666 9.02992C25.3761 8.31936 25.2659 7.83572 24.8883 7.39781Z" fill="white"/>
<path fill-rule="evenodd" clip-rule="evenodd" d="M25.5037 9.25439C25.4953 9.3085 25.4861 9.36336 25.4752 9.41998C25.1081 11.3343 23.8514 11.9964 22.2464 11.9964H21.4292C21.2331 11.9964 21.0676 12.1413 21.0371 12.3379L20.4999 15.7951C20.4799 15.9239 20.578 16.0407 20.7064 16.0407H22.1557C22.3272 16.0407 22.4732 15.9139 22.5 15.742L22.5141 15.667L22.7873 13.9095L22.8049 13.8123C22.8317 13.6404 22.9777 13.5136 23.1492 13.5136H23.3661C24.77 13.5136 25.8694 12.9346 26.1906 11.2598C26.3247 10.56 26.2553 9.97563 25.9006 9.56518C25.793 9.44087 25.6594 9.33819 25.5037 9.25439Z" fill="white"/>
<path fill-rule="evenodd" clip-rule="evenodd" d="M24.8753 8.85116C24.8193 8.83456 24.7615 8.81946 24.702 8.80612C24.6426 8.79278 24.5811 8.78095 24.5181 8.77064C24.2975 8.7344 24.0566 8.71729 23.7978 8.71729H21.6148C21.561 8.71729 21.5099 8.72962 21.4643 8.75201C21.3634 8.80109 21.2888 8.89772 21.2705 9.01625L20.8065 12.0031L20.7931 12.0902C20.8236 11.8936 20.9892 11.7487 21.1852 11.7487H22.0025C23.6074 11.7487 24.8642 11.0868 25.2313 9.17227C25.2422 9.11565 25.2513 9.06079 25.2598 9.00669C25.1668 8.95686 25.0662 8.91383 24.9579 8.87734C24.9308 8.86828 24.9033 8.85947 24.8753 8.85116Z" fill="white"/>
</svg>
