<svg width="31" height="31" viewBox="0 0 31 31" fill="none" xmlns="http://www.w3.org/2000/svg">
<path fill-rule="evenodd" clip-rule="evenodd" d="M15.5 30.6155C23.7843 30.6155 30.5 23.8749 30.5 15.5598C30.5 7.24481 23.7843 0.50415 15.5 0.50415C7.21573 0.50415 0.5 7.24481 0.5 15.5598C0.5 23.8749 7.21573 30.6155 15.5 30.6155Z" fill="black"/>
<path fill-rule="evenodd" clip-rule="evenodd" d="M15.8026 9.48474C12.2775 9.48474 10.5 11.862 10.5 13.8444C10.5 15.0448 10.9832 16.1127 12.0194 16.5107C12.1893 16.576 12.3416 16.513 12.3908 16.336C12.4251 16.2135 12.5062 15.9045 12.5424 15.7759C12.5921 15.6009 12.5728 15.5395 12.4357 15.3869C12.1369 15.0554 11.946 14.6262 11.946 14.0183C11.946 12.2546 13.3489 10.6758 15.5991 10.6758C17.5915 10.6758 18.6862 11.8209 18.6862 13.3503C18.6862 15.3625 17.7394 17.0609 16.3339 17.0609C15.5577 17.0609 14.9767 16.4571 15.1629 15.7166C15.386 14.8324 15.818 13.8783 15.818 13.2401C15.818 12.6689 15.492 12.1924 14.8172 12.1924C14.0238 12.1924 13.3863 12.9645 13.3863 13.9988C13.3863 14.6575 13.623 15.1031 13.623 15.1031C13.623 15.1031 12.811 18.3393 12.6687 18.906C12.3851 20.0347 12.626 21.4185 12.6465 21.5582C12.6584 21.641 12.7715 21.6607 12.8227 21.5981C12.8959 21.5083 13.841 20.4108 14.1623 19.3143C14.2532 19.0038 14.6842 17.396 14.6842 17.396C14.942 17.8585 15.6954 18.2659 16.4966 18.2659C18.8818 18.2659 20.5 16.2206 20.5 13.4829C20.5 11.4127 18.6358 9.48474 15.8026 9.48474Z" fill="white"/>
</svg>
