<svg width="36" height="17" viewBox="0 0 36 17" fill="none" xmlns="http://www.w3.org/2000/svg">
<path fill-rule="evenodd" clip-rule="evenodd" d="M11.932 12.5663C12.3704 12.1279 12.9767 11.856 13.647 11.856C14.3157 11.856 14.9235 12.1279 15.3634 12.5663C15.8018 13.0047 16.0737 13.611 16.0737 14.2812C16.0737 14.9514 15.8032 15.5578 15.3634 15.9962C14.9235 16.4346 14.3172 16.7065 13.647 16.7065C12.9767 16.7065 12.3704 16.4345 11.932 15.9962C11.4936 15.5578 11.2217 14.9514 11.2217 14.2812C11.2217 13.611 11.4937 13.0047 11.932 12.5663ZM12.6082 14.2812C12.6082 14.8534 13.0748 15.32 13.647 15.32C14.2191 15.32 14.6842 14.8534 14.6857 14.2812C14.6857 13.7091 14.2191 13.2425 13.647 13.2425C13.0748 13.2425 12.6082 13.7091 12.6082 14.2812Z" fill="black"/>
<path fill-rule="evenodd" clip-rule="evenodd" d="M34.6035 7.54337C34.8977 7.84057 35.0448 8.20019 35.0448 8.6178L35.0416 12.26C35.0416 13.0699 34.3818 13.7313 33.5719 13.7313H32.8571C32.7471 13.1606 32.4663 12.6509 32.071 12.2556C31.5523 11.737 30.836 11.416 30.044 11.416C29.2519 11.416 28.5356 11.7369 28.017 12.2556C27.6217 12.6509 27.3423 13.1606 27.2309 13.7313H16.46C16.35 13.1606 16.0692 12.6509 15.6739 12.2556C15.1552 11.737 14.4389 11.416 13.6469 11.416C12.8548 11.416 12.1385 11.7369 11.6199 12.2556C11.2246 12.6509 10.9452 13.1606 10.8337 13.7313H9.18421V4.30675H4.96518C4.72145 4.30675 4.5238 4.1091 4.5238 3.86537C4.5238 3.62163 4.72147 3.42399 4.96518 3.42399L9.18421 3.42547V0.0312711L26.6724 0.0297852V1.9156H26.934C28.3383 1.9156 29.5479 2.42086 30.5347 3.42098L34.6035 7.54337ZM26.7346 3.29171V6.85235L32.239 6.85235L29.3531 3.92479C28.94 3.5057 28.4347 3.29468 27.8462 3.2932L26.7346 3.29171Z" fill="black"/>
<path fill-rule="evenodd" clip-rule="evenodd" d="M28.3311 12.5663C28.7695 12.1279 29.3758 11.856 30.046 11.856C30.7162 11.856 31.3225 12.1279 31.7609 12.5663C32.1993 13.0047 32.4713 13.611 32.4713 14.2812C32.4713 14.9514 32.1993 15.5578 31.7609 15.9962C31.3225 16.4346 30.7162 16.7065 30.046 16.7065C29.3758 16.7065 28.7695 16.436 28.3311 15.9962C27.8927 15.5578 27.6207 14.9514 27.6207 14.2812C27.6207 13.611 27.8927 13.0047 28.3311 12.5663ZM29.034 14.2812C29.034 14.8534 29.4991 15.32 30.0713 15.32C30.6434 15.32 31.11 14.8534 31.11 14.2812C31.11 13.7091 30.6434 13.2425 30.0713 13.2425C29.5006 13.2425 29.034 13.7091 29.034 14.2812Z" fill="black"/>
<path d="M6.02949 6.87595C6.02949 6.63224 5.83184 6.43457 5.58811 6.43457H1.22947C0.985752 6.43457 0.788086 6.63222 0.788086 6.87595C0.788086 7.11968 0.985733 7.31733 1.22947 7.31733H5.58811C5.83182 7.31733 6.02949 7.11968 6.02949 6.87595Z" fill="black"/>
<path d="M7.58704 9.8335H2.18943C1.94571 9.8335 1.74805 10.0311 1.74805 10.2749C1.74805 10.5186 1.94569 10.7163 2.18943 10.7163H7.58704C7.83075 10.7163 8.02842 10.5186 8.02842 10.2749C8.02842 10.0312 7.83077 9.8335 7.58704 9.8335Z" fill="black"/>
</svg>
