<svg width="31" height="31" viewBox="0 0 31 31" fill="none" xmlns="http://www.w3.org/2000/svg">
<path fill-rule="evenodd" clip-rule="evenodd" d="M0.5 15.5042C0.5 7.21988 7.21573 0.50415 15.5 0.50415C23.7843 0.50415 30.5 7.21988 30.5 15.5042C30.5 23.7884 23.7843 30.5042 15.5 30.5042C7.21573 30.5042 0.5 23.7884 0.5 15.5042Z" fill="black"/>
<path fill-rule="evenodd" clip-rule="evenodd" d="M20.1502 22.15C19.6168 22.6662 18.5221 23.0497 17.4729 23.0676C17.4333 23.0683 17.3944 23.0686 17.3554 23.0686H17.3551C13.904 23.0684 12.9833 20.4168 12.9833 18.85V14.0353C12.9833 13.9956 12.9513 13.9634 12.9118 13.9634H11.2431C11.2036 13.9634 11.1716 13.9312 11.1716 13.8915V11.6982C11.1716 11.6689 11.1899 11.6427 11.217 11.6321C13.0006 10.9332 13.9966 9.54465 14.2586 7.39689C14.2732 7.27757 14.371 7.27429 14.372 7.27429H16.5996C16.639 7.27429 16.671 7.30649 16.671 7.34622V11.2011C16.671 11.2408 16.703 11.273 16.7425 11.273H19.5153C19.5548 11.273 19.5868 11.3052 19.5868 11.3449V13.8915C19.5868 13.9312 19.5548 13.9634 19.5153 13.9634H16.7305C16.6911 13.9634 16.6591 13.9956 16.6591 14.0354L16.6592 18.6111C16.6756 19.6413 17.171 20.1636 18.1316 20.1636C18.5187 20.1636 18.962 20.073 19.3668 19.9173C19.4046 19.9028 19.4464 19.9222 19.4593 19.9608L20.1677 22.0744C20.1766 22.101 20.1704 22.1305 20.1502 22.15Z" fill="white"/>
<path fill-rule="evenodd" clip-rule="evenodd" d="M12.2838 15.7929H10.3481V14.6676H12.2207C12.2556 14.6676 12.2838 14.696 12.2838 14.7311V15.7929Z" fill="black"/>
</svg>
