<svg width="31" height="31" viewBox="0 0 31 31" fill="none" xmlns="http://www.w3.org/2000/svg">
<path fill-rule="evenodd" clip-rule="evenodd" d="M0.5 15.5042C0.5 7.21988 7.21573 0.50415 15.5 0.50415C23.7843 0.50415 30.5 7.21988 30.5 15.5042C30.5 23.7884 23.7843 30.5042 15.5 30.5042C7.21573 30.5042 0.5 23.7884 0.5 15.5042ZM15.0508 12.6963L15.0822 13.2154L14.5576 13.1518C12.648 12.9082 10.9798 12.082 9.56334 10.6944L8.87085 10.0058L8.69248 10.5143C8.31477 11.6477 8.55609 12.8446 9.343 13.6497C9.76269 14.0946 9.66826 14.1581 8.9443 13.8933C8.69248 13.8086 8.47215 13.745 8.45116 13.7768C8.37772 13.8509 8.62953 14.8148 8.82888 15.1962C9.10168 15.7258 9.65777 16.2448 10.2663 16.552L10.7804 16.7956L10.1719 16.8062C9.58432 16.8062 9.56334 16.8168 9.62629 17.0393C9.83613 17.7278 10.665 18.4587 11.5883 18.7764L12.2388 18.9989L11.6723 19.3379C10.8329 19.8251 9.84663 20.1005 8.86036 20.1217C8.38821 20.1323 8 20.1747 8 20.2064C8 20.3124 9.28005 20.9055 10.025 21.1386C12.2598 21.8271 14.9144 21.5305 16.9079 20.3547C18.3243 19.5179 19.7408 17.8549 20.4018 16.2448C20.7585 15.3868 21.1152 13.8191 21.1152 13.0671C21.1152 12.5798 21.1467 12.5163 21.7343 11.9337C22.0805 11.5947 22.4058 11.224 22.4687 11.1181C22.5737 10.9168 22.5632 10.9168 22.0281 11.0969C21.1362 11.4146 21.0103 11.3723 21.451 10.8956C21.7762 10.5566 22.1645 9.94228 22.1645 9.76221C22.1645 9.73043 22.0071 9.78339 21.8287 9.87873C21.6398 9.98465 21.2202 10.1435 20.9054 10.2389L20.3388 10.4189L19.8247 10.0694C19.5414 9.87873 19.1427 9.66688 18.9329 9.60332C18.3978 9.45502 17.5794 9.47621 17.0967 9.64569C15.7852 10.1224 14.9563 11.3511 15.0508 12.6963Z" fill="black"/>
</svg>
