<svg width="44" height="28" viewBox="0 0 44 28" fill="none" xmlns="http://www.w3.org/2000/svg">
<path fill-rule="evenodd" clip-rule="evenodd" d="M0.533447 2.0922C0.533447 1.42117 1.07742 0.877197 1.74845 0.877197H41.8298C42.5008 0.877197 43.0448 1.42117 43.0448 2.0922V26.1713C43.0448 26.8423 42.5008 27.3863 41.8298 27.3863H1.74845C1.07742 27.3863 0.533447 26.8423 0.533447 26.1713V2.0922Z" fill="#0066B2"/>
<path fill-rule="evenodd" clip-rule="evenodd" d="M31.7373 16.4894C31.7373 16.2996 31.8905 16.1458 32.0794 16.1458C32.2686 16.1458 32.4215 16.2996 32.4215 16.4894C32.4215 16.679 32.2686 16.833 32.0794 16.833C31.8905 16.833 31.7373 16.679 31.7373 16.4894ZM32.0794 16.7503C32.2234 16.7503 32.3396 16.6334 32.3396 16.4894C32.3396 16.3448 32.2234 16.2283 32.0794 16.2283C31.9361 16.2283 31.8197 16.3448 31.8197 16.4894C31.8197 16.6334 31.9361 16.7503 32.0794 16.7503ZM32.0334 16.64H31.9634V16.3382H32.0903C32.1167 16.3382 32.1435 16.3386 32.167 16.3534C32.1913 16.3705 32.205 16.3989 32.205 16.4288C32.205 16.4633 32.1854 16.4952 32.1533 16.507L32.2082 16.64H32.1303L32.0848 16.5205H32.0334V16.64ZM32.0334 16.4689H32.0719C32.0864 16.4689 32.102 16.4702 32.1147 16.4633C32.1263 16.4557 32.1323 16.4416 32.1323 16.4282C32.1323 16.4171 32.1253 16.4036 32.1154 16.3977C32.103 16.3905 32.0836 16.392 32.0705 16.392H32.0334V16.4689Z" fill="white"/>
<path fill-rule="evenodd" clip-rule="evenodd" d="M30.0486 16.8545H31.5671L30.2432 10.5143H28.9139C28.2999 10.5143 28.1501 10.9865 28.1501 10.9865L25.684 16.8545H27.4076L27.7522 15.9129H29.8548L30.0486 16.8545ZM28.2289 14.6119L29.0977 12.2387L29.5868 14.6119H28.2289Z" fill="white"/>
<path fill-rule="evenodd" clip-rule="evenodd" d="M25.813 12.0389L26.0491 10.6773C26.0491 10.6773 25.3207 10.4009 24.5617 10.4009C23.7409 10.4009 21.7919 10.7589 21.7919 12.4998C21.7919 14.1381 24.0796 14.1585 24.0796 15.0182C24.0796 15.8784 22.0278 15.7249 21.3504 15.1823L21.1047 16.6055C21.1047 16.6055 21.8429 16.9638 22.9717 16.9638C24.0999 16.9638 25.803 16.3803 25.803 14.7933C25.803 13.1448 23.4947 12.9909 23.4947 12.2743C23.4947 11.5574 25.1055 11.6496 25.813 12.0389Z" fill="white"/>
<path fill-rule="evenodd" clip-rule="evenodd" d="M20.0856 16.8545H18.4319L19.4654 10.5143H21.1196L20.0856 16.8545Z" fill="white"/>
<path fill-rule="evenodd" clip-rule="evenodd" d="M15.464 14.8751L17.0405 10.5143H18.8205L16.1892 16.8545H14.4661L13.0297 11.3462C12.0966 10.7869 11.2996 10.6215 11.2993 10.6215C11.2996 10.6215 12.5525 10.8807 13.7541 11.8513C14.9031 12.7797 15.2772 13.9363 15.2772 13.9363V13.936L15.464 14.8751Z" fill="white"/>
<path fill-rule="evenodd" clip-rule="evenodd" d="M15.2772 13.9363L14.7206 11.0852C14.7206 11.0852 14.6537 10.5143 13.9363 10.5143H11.3298L11.2993 10.6215C11.2996 10.6215 12.5525 10.8807 13.7541 11.8513C14.9031 12.7797 15.2772 13.9363 15.2772 13.9363Z" fill="#F9A533"/>
</svg>
