<svg width="31" height="31" viewBox="0 0 31 31" fill="none" xmlns="http://www.w3.org/2000/svg">
<path fill-rule="evenodd" clip-rule="evenodd" d="M15.2754 0.50415C7.11518 0.50415 0.5 7.21988 0.5 15.5042C0.5 23.7884 7.11518 30.5042 15.2754 30.5042C23.4357 30.5042 30.0508 23.7884 30.0508 15.5042C30.0508 7.21988 23.4357 0.50415 15.2754 0.50415ZM22.34 10.862C22.8116 11.3582 22.9656 12.4848 22.9656 12.4848C22.9656 12.4848 23.123 13.8082 23.123 15.131V16.3716C23.123 17.695 22.9656 19.0179 22.9656 19.0179C22.9656 19.0179 22.8116 20.1445 22.34 20.6406C21.8008 21.2276 21.2029 21.2882 20.8649 21.3225C20.8278 21.3262 20.7937 21.3297 20.7633 21.3335C18.561 21.499 15.2541 21.5042 15.2541 21.5042C15.2541 21.5042 11.1623 21.4653 9.90328 21.3396C9.84363 21.328 9.77132 21.319 9.68943 21.3088C9.29063 21.2591 8.66468 21.1811 8.1677 20.6406C7.69607 20.1445 7.54262 19.0179 7.54262 19.0179C7.54262 19.0179 7.38525 17.695 7.38525 16.3716V15.131C7.38525 13.8082 7.54262 12.4848 7.54262 12.4848C7.54262 12.4848 7.69607 11.3582 8.1677 10.862C8.70813 10.2743 9.30659 10.2143 9.64458 10.1804C9.68122 10.1768 9.7148 10.1734 9.74492 10.1697C11.9472 10.0042 15.2507 10.0042 15.2507 10.0042H15.2575C15.2575 10.0042 18.561 10.0042 20.7633 10.1697C20.7934 10.1734 20.827 10.1768 20.8637 10.1805C21.2014 10.2143 21.8001 10.2744 22.34 10.862Z" fill="black"/>
<path fill-rule="evenodd" clip-rule="evenodd" d="M13.6292 17.8749L13.6287 13.2809L17.8808 15.5858L13.6292 17.8749Z" fill="black"/>
</svg>
